<svg xmlns="http://www.w3.org/2000/svg" xmlns:xlink="http://www.w3.org/1999/xlink" xmlns:inkscape="http://www.inkscape.org/namespaces/inkscape" version="1.1" width="648" height="648" viewBox="0 0 648 648">
<g inkscape:groupmode="layer" inkscape:label="Layer 1">
<path transform="matrix(1,0,0,-1,0,648)" d="M68.8428 264.5308H321.1432V194.565H68.8428Z" fill="#025280" fill-rule="evenodd"/>
<path transform="matrix(1,0,0,-1,0,648)" d="M321.1398 264.5308H579.1572V194.565H321.1398Z" fill="#e6e7e8" fill-rule="evenodd"/>
<path transform="matrix(1,0,0,-1,0,648)" d="M331.5288 253.6537V205.3293H338.8456V223.0067H345.2414C357.2116 223.0067 363.943 228.5104 363.943 237.9322 363.943 247.5689 356.7107 253.6537 344.7451 253.6537ZM338.8456 248.2934H343.0828C351.0607 248.2934 356.2143 244.5222 356.2143 238.4376 356.2143 231.8454 351.4745 228.1504 342.5842 228.1504H338.8456ZM374.2464 254.6685V205.3293H381.2295V233.1488C384.4695 235.3952 387.2959 236.4817 390.2888 236.4817 396.3552 236.4817 397.5191 233.0033 397.5191 226.6997V205.3293H404.4152V228.4387C404.4152 237.1343 400.0113 241.5538 392.2826 241.5538 388.2104 241.5538 385.2196 240.5409 381.9773 238.0017L381.2295 238.1471V254.6685ZM435.4988 208.5171V205.3293H442.3952V229.5272C442.3952 237.6417 437.4927 241.4083 427.1026 241.4083 422.9501 241.4083 419.0426 240.6864 414.8878 239.3787V232.3508H418.2103C420.8717 235.1047 424.0295 236.4817 427.4365 236.4817 432.5905 236.4817 435.4988 234.5255 435.4988 231.2643V228.2956L431.2596 227.6408C419.127 225.6154 412.6448 222.7139 412.6448 215.1808 412.6448 209.0222 417.2978 204.4446 424.6104 204.4446 428.8496 204.4446 432.5057 205.8324 435.4988 208.5171ZM435.4988 224.2383V212.7172C432.7551 210.6181 430.1802 209.6033 427.354 209.6033 423.0303 209.6033 419.957 212.2121 419.957 215.545 419.957 220.2528 424.944 222.4256 435.4988 224.2383ZM453.8645 240.5409V205.3293H460.8456V224.8889C460.8456 231.6263 463.091 233.437 471.151 233.437H474.6404V240.5409H474.1441C467.4949 240.5409 463.8385 239.0187 461.1793 234.5255L460.514 234.9592C460.7631 236.3363 460.8456 237.7134 460.8456 239.1639V240.5409ZM481.6236 240.5409V205.3293H488.6022V233.1488C491.4283 235.3952 494.0898 236.4817 497.2453 236.4817 502.8976 236.4817 504.6423 233.2939 504.6423 226.6997V205.3293H511.2094V233.1488C514.4516 235.3952 517.358 236.4817 520.2666 236.4817 525.6697 236.4817 527.7458 233.3676 527.7458 226.6997V205.3293H534.6465V228.1504C534.6465 237.0606 530.4073 241.5538 522.5119 241.5538 517.191 241.5538 513.8685 239.8884 510.2949 235.8312 508.2185 239.5976 504.311 241.5538 499.0745 241.5538 495.2514 241.5538 492.3431 240.465 489.4367 238.0017L488.6022 238.1471V240.5409ZM565.8948 208.5171V205.3293H572.7912V229.5272C572.7912 237.6417 567.8887 241.4083 557.4986 241.4083 553.3461 241.4083 549.4385 240.6864 545.2838 239.3787V232.3508H548.6063C551.2677 235.1047 554.4255 236.4817 557.8325 236.4817 562.9864 236.4817 565.8948 234.5255 565.8948 231.2643V228.2956L561.6556 227.6408C549.523 225.6154 543.0407 222.7139 543.0407 215.1808 543.0407 209.0222 547.6938 204.4446 555.0063 204.4446 559.2455 204.4446 562.9017 205.8324 565.8948 208.5171ZM565.8948 224.2383V212.7172C563.1511 210.6181 560.5761 209.6033 557.75 209.6033 553.4286 209.6033 550.353 212.2121 550.353 215.545 550.353 220.2528 555.34 222.4256 565.8948 224.2383" fill="#025280"/>
<path transform="matrix(1,0,0,-1,0,648)" d="M235.3632 152.6786C234.3538 151.5129 232.9818 149.9437 231.2436 147.9594 229.5051 145.9789 227.9829 144.2701 226.6807 142.8347 225.3764 141.3995 224.0223 140.0445 222.6127 138.7718 221.2067 137.5007 219.9472 136.5554 218.8341 135.9369 218.2428 135.5757 217.5659 135.3934 216.7994 135.3934 215.7239 135.3934 214.7054 136.1299 213.7516 137.6011 212.794 139.072 212.2812 140.3717 212.2115 141.4996 212.2812 142.7006 213.0296 144.3345 214.4537 146.408 215.949 148.4439 217.4961 150.4514 219.0932 152.4319 220.6939 154.4125 222.084 156.0855 223.2666 157.4476 224.4475 158.8113 226.1339 160.7669 228.3242 163.3088 228.8798 164.0004 229.1584 164.6368 229.1584 165.2196 229.1584 165.9453 228.5493 166.3101 227.3326 166.3101 226.116 166.3101 224.4832 165.9112 222.4324 165.1105 221.423 164.7102 220.3367 164.2652 219.172 163.7736 218.0089 163.2838 216.9995 162.8459 216.1491 162.4652 215.2967 162.0842 214.4018 161.6213 213.4638 161.0762 213.1852 160.8939 212.7243 160.6221 212.0811 160.2575 211.4379 159.8927 210.8038 159.5764 210.1785 159.3031 209.5532 159.0296 209.0134 158.8757 208.5616 158.8399 207.7968 158.8399 207.3628 159.4389 207.2591 160.6382 207.3271 160.9296 207.3628 161.2942 207.3628 161.7287 207.8487 164.0543 208.3436 165.6094 208.8493 166.3903 209.353 167.1732 210.316 168.162 211.7415 169.363 214.4894 171.8708 216.14 173.124 216.6956 173.124 216.7654 173.124 216.7994 173.0149 216.7994 172.7986 216.7994 172.3249 216.3314 171.4365 215.3934 170.1281 218.3803 171.2523 220.8155 172.1265 222.6912 172.745 224.5689 173.3615 226.552 173.6708 228.6369 173.6708 229.9215 173.6708 230.8433 173.5977 231.4006 173.4511 231.8865 173.342 232.3653 172.9273 232.8335 172.1999 233.3032 171.4706 233.6856 170.6162 233.9821 169.6348 234.2752 168.6552 234.4252 167.6543 234.4252 166.6372 234.4252 165.729 234.2682 164.9086 233.9535 164.183 233.157 162.7296 232.3208 161.3568 231.4525 160.0645 230.5843 158.7756 229.5587 157.3404 228.3761 155.7601 227.1934 154.1764 225.9947 152.5856 224.778 150.9857 224.3957 150.5157 223.647 149.5967 222.5358 148.2347 221.423 146.8692 220.5726 145.743 219.9813 144.8546 219.3897 143.9609 219.2505 143.4424 219.5631 143.2976 219.9472 143.0813 220.9725 143.6981 222.6413 145.1531 224.3081 146.6065 225.9607 148.1865 227.5937 149.8955 229.9589 152.2942 232.1563 154.6234 234.1894 156.8755 236.2226 159.1313 238.7523 162.0198 241.7769 165.545 242.2967 166.2009 242.888 166.9374 243.5491 167.7543 244.2101 168.5713 244.8782 169.2825 245.5571 169.8797 246.2343 170.4821 246.9042 170.7806 247.5635 170.7806 248.2245 170.7806 248.8158 170.3979 249.3357 169.6348 249.8573 168.8732 250.1201 168.1081 250.1201 167.3467 250.1201 166.9088 250.0146 166.4923 249.8057 166.0918 249.5982 165.6933 249.3536 165.293 249.0766 164.8925 248.798 164.4922 248.2603 163.7093 247.4597 162.5474 245.861 160.1841 244.228 157.612 242.5595 154.8323 240.889 152.051 239.5168 149.5522 238.4396 147.3338 237.3605 145.1157 236.8049 143.5158 236.7709 142.5345 236.8763 142.1734 237.0141 141.9355 237.189 141.8267 237.7446 141.571 239.2381 142.5183 241.6714 144.6616 244.1066 146.8083 246.2431 149.1143 248.0851 151.5881 249.0231 152.8965 249.9806 154.2943 250.9526 155.785 251.9263 157.2761 252.7784 158.7025 253.5092 160.0645 254.238 161.4283 254.6722 162.4382 254.8114 163.0908 254.6382 163.1659 254.4987 163.457 254.3933 163.9667 254.3933 164.6566 254.6291 165.511 255.0991 166.5281 255.5688 167.5451 256.1318 168.4352 256.7945 169.1986 257.4539 169.9637 258.0094 170.3443 258.463 170.3443 259.2261 170.3443 259.6102 169.3826 259.6102 167.4558V166.0918C259.2955 162.4938 257.7662 158.2679 255.0206 153.415 252.2747 148.5618 249.0766 144.2988 245.425 140.6271 243.6188 138.8112 242.1502 137.5007 241.0211 136.7019 239.8904 135.9028 238.7523 135.5023 237.6054 135.5023 236.1796 135.5023 234.9451 136.0905 233.9036 137.274 232.8602 138.4554 232.2867 139.7925 232.1813 141.2796 232.2153 142.2269 232.3993 143.2976 232.7281 144.4972 233.0603 145.6965 233.4694 146.9959 233.9535 148.3974 234.4414 149.7951 234.9113 151.2235 235.3632 152.6786ZM259.8693 146.7887C262.129 147.6626 263.9801 148.7889 265.4218 150.1707 266.8652 151.5523 267.5869 152.6051 267.5869 153.3311 267.5869 153.4776 267.5781 153.5777 267.5585 153.6313 267.5424 153.6866 267.5174 153.7152 267.4817 153.7152 267.2742 153.9334 266.665 153.7849 265.6576 153.2772 264.6482 152.7678 263.6048 151.9671 262.5293 150.8769 261.4501 149.7864 260.564 148.4243 259.8693 146.7887ZM259.7655 144.2273C259.6601 143.7911 259.5566 143.3336 259.4511 142.8633 259.4511 142.0251 259.7655 141.3726 260.3908 140.8989 261.0162 140.4289 261.8164 140.1534 262.7884 140.0803 263.067 140.1534 263.3797 140.1911 263.7264 140.1911 264.6303 140.3717 265.5094 140.6809 266.3614 141.1169 267.2118 141.5548 268.3945 142.3539 269.9059 143.5158 271.419 144.6812 272.6447 145.6787 273.5827 146.5169L274.1043 144.3345C271.4281 141.319 268.9072 139.072 266.5437 137.6011 264.1799 136.1299 262.0755 135.3934 260.2355 135.3934 258.4613 135.3934 257.0536 136.0548 256.0119 137.3828 254.9687 138.7111 254.4111 140.3895 254.3417 142.4254 254.2363 144.4632 254.8205 146.6065 256.0887 148.8623 257.3572 151.1144 259.0778 152.9949 261.25 154.5052 263.4225 156.0121 265.7092 156.8203 268.1087 156.9291 270.8189 157.0382 272.1747 156.1141 272.1747 154.1514 272.1747 153.0235 271.7745 151.933 270.976 150.8769 269.8274 149.2787 268.2213 147.9594 266.1523 146.9262 264.0835 145.8896 261.9541 144.9904 259.7655 144.2273ZM301.0076 150.0063C300.2788 149.4986 299.4803 148.9229 298.6101 148.2885 297.7418 147.6522 297.0808 147.1445 296.6289 146.7601 296.1788 146.3794 295.7338 145.8808 295.2998 145.2623 294.8655 144.6454 294.5959 143.9538 294.4905 143.1887 294.7351 141.5548 296.0734 140.5913 298.5066 140.3002 301.5989 140.4091 305.4597 142.5345 310.0816 146.6796L310.7069 144.4436C305.2845 138.5538 300.6272 135.6114 296.7324 135.6114 294.6815 135.6114 293.1721 136.4553 292.1964 138.1445 291.2247 139.837 290.7369 141.8068 290.7369 144.0626 290.7369 146.0971 291.3123 147.8701 292.4592 149.377 293.6061 150.8856 295.3443 152.3676 297.6724 153.8243 301.4614 156.223 304.2431 157.3654 306.0153 157.2562 307.6483 157.2562 308.4664 156.4753 308.4664 154.9148 308.4664 153.6761 307.7538 152.1513 306.328 150.3334 304.9381 148.6244 303.7215 147.6967 302.6781 147.5538 301.8438 147.6235 301.2863 148.4439 301.0076 150.0063ZM325.8799 151.2609V151.3701C322.8214 150.2796 320.3969 149.3521 318.6068 148.587 316.815 147.8254 315.2089 146.8083 313.7831 145.5355 312.3575 144.2611 311.7322 142.8437 311.9074 141.2796 311.9074 140.7005 312.2201 140.3359 312.8454 140.1911 313.9583 140.2268 315.7824 141.4083 318.3194 143.7338 320.8561 146.0631 323.3769 148.5709 325.8799 151.2609ZM329.008 152.7877C329.946 152.3137 330.4159 151.6416 330.4159 150.7677 330.4159 149.8955 329.9817 148.932 329.1117 147.8809 327.0626 145.3711 326.0191 143.5158 325.9854 142.3165 326.0548 141.5889 326.4891 141.1705 327.2893 141.0616 328.7134 140.8827 331.2842 142.3718 335.0038 145.5355L335.4216 143.2976C333.4405 141.226 331.1804 139.2364 328.6437 137.3292 326.105 135.4184 324.2631 134.6105 323.1162 134.8999 321.8655 135.1913 321.1883 136.0996 321.0849 137.6294 321.1883 139.299 321.8655 141.4083 323.1162 143.9538L323.0124 144.0626C321.726 142.9724 320.3969 141.8462 319.0249 140.6809 317.6493 139.5173 316.4434 138.5626 315.4 137.8174 314.3568 137.0718 313.5402 136.5928 312.9489 136.3748 312.1843 136.1191 311.1945 136.7572 309.9762 138.282 308.7595 139.8084 308.1521 141.3369 308.1521 142.8633 308.1521 143.5158 308.1878 143.9538 308.2558 144.1718 308.7434 146.1719 310.0904 148.108 312.2986 149.9777 314.5051 151.8491 317.033 153.4042 319.8844 154.6393 322.7355 155.878 325.0633 156.568 326.8715 156.7128H327.3931C328.2613 156.7128 329.0349 156.4662 329.7121 155.9784 330.391 155.4849 330.7303 154.8414 330.7303 154.0423 330.7303 153.6063 330.1551 153.1879 329.008 152.7877ZM344.1813 149.243 344.0775 149.3521C343.7649 149.2787 342.809 149.0607 341.2083 148.6959 339.6112 148.335 338.7572 148.1329 338.6537 148.0972 338.1676 147.2981 337.6389 146.5707 337.0635 145.9145 336.49 145.2623 335.7434 144.5168 334.8215 143.6803 333.8997 142.8437 333.0743 142.0804 332.3452 141.3904L332.1363 143.7338C333.2154 144.6454 334.3785 145.9896 335.6308 147.7718 334.6571 147.7718 334.1713 148.2599 334.1713 149.243 334.1713 150.4066 334.6999 151.74 335.7595 153.2506 336.8205 154.7575 338.2033 156.0212 339.9041 157.0382 340.3239 157.1865 340.6544 157.2562 340.8956 157.2562 341.4512 157.2562 341.7301 156.9291 341.7301 156.2769 341.7301 155.878 341.5924 155.3848 341.3137 154.804 346.1462 155.4222 348.5974 155.7298 348.6654 155.7298 349.3942 155.7298 349.916 155.3598 350.2287 154.6143 350.5411 153.8691 350.6984 153.0397 350.6984 152.1315 350.6984 151.6221 350.6644 151.2967 350.5949 151.1521 350.4912 150.8964 349.848 150.2152 348.6654 149.1052 347.4845 147.9988 346.5286 146.9174 345.7979 145.8609 345.0674 144.4793 344.6688 143.4818 344.5991 142.8633 344.7726 142.0251 345.312 141.4996 346.216 141.2796 347.5344 141.353 349.9696 143.0277 353.514 146.2989L353.8267 144.2273C351.6041 141.6444 349.4908 139.6191 347.4933 138.1445 345.4943 136.6733 344.0078 135.9028 343.0341 135.8277 342.2356 135.7546 341.462 136.0655 340.7134 136.7572 339.9667 137.4471 339.5237 138.4285 339.3842 139.6996 339.245 141.1903 339.5665 142.6167 340.3491 143.9787 341.1298 145.3425 342.409 147.0963 344.1813 149.243ZM359.5113 146.7887C361.7714 147.6626 363.6221 148.7889 365.0658 150.1707 366.5092 151.5523 367.2292 152.6051 367.2292 153.3311 367.2292 153.4776 367.2204 153.5777 367.2026 153.6313 367.1847 153.6866 367.1595 153.7152 367.1257 153.7152 366.9165 153.9334 366.3091 153.7849 365.2997 153.2772 364.2922 152.7678 363.2488 151.9671 362.1716 150.8769 361.0925 149.7864 360.2081 148.4243 359.5113 146.7887ZM359.4078 144.2273C359.3041 143.7911 359.1986 143.3336 359.0952 142.8633 359.0952 142.0251 359.4078 141.3726 360.0332 140.8989 360.6585 140.4289 361.4587 140.1534 362.4324 140.0803 362.7111 140.1534 363.0237 140.1911 363.3704 140.1911 364.2744 140.3717 365.1534 140.6809 366.0038 141.1169 366.8559 141.5548 368.0385 142.3539 369.5499 143.5158 371.0614 144.6812 372.2871 145.6787 373.2267 146.5169L373.7466 144.3345C371.0704 141.319 368.5513 139.072 366.1877 137.6011 363.8222 136.1299 361.7195 135.3934 359.8775 135.3934 358.1036 135.3934 356.6976 136.0548 355.6542 137.3828 354.6111 138.7111 354.0555 140.3895 353.9837 142.4254 353.8803 144.4632 354.4625 146.6065 355.731 148.8623 357.0012 151.1144 358.7199 152.9949 360.8943 154.5052 363.0665 156.0121 365.3535 156.8203 367.7511 156.9291 370.463 157.0382 371.8171 156.1141 371.8171 154.1514 371.8171 153.0235 371.4168 151.933 370.62 150.8769 369.4714 149.2787 367.8636 147.9594 365.7966 146.9262 363.7276 145.8896 361.5982 144.9904 359.4078 144.2273ZM389.7539 140.0803C388.6767 141.4619 388.137 142.6076 388.137 143.5158 388.137 145.0066 389.5288 146.3902 392.3104 147.6626 393.3876 148.1329 394.2828 148.9516 394.9957 150.1152 395.7083 151.2771 397.1143 153.7761 399.219 157.612 401.3218 161.4481 403.1904 164.5279 404.8234 166.8535 406.3884 168.8893 407.6229 169.9101 408.5269 169.9101 409.1859 169.9101 409.5164 169.1252 409.5164 167.5647 409.4827 165.8186 409.011 164.0846 408.1088 162.356 407.2048 160.6292 405.354 157.7747 402.5563 153.794 399.7568 149.815 397.9057 147.0963 397.0018 145.643 397.4199 145.4267 397.8023 145.0996 398.1489 144.6616 398.4973 144.2273 398.8188 143.6533 399.1153 142.9438 399.4084 142.236 399.6281 141.7175 399.7655 141.3904L406.8045 145.9701 407.38 144.0626C405.2914 141.7731 403.0512 139.991 400.6517 138.7182 401.034 136.9003 400.8696 135.0181 400.157 133.0733 399.4441 131.1284 398.4364 129.4143 397.1322 127.9233 395.8299 126.4326 394.4472 125.2225 392.9876 124.2947 391.5281 123.3706 390.2238 122.8524 389.0769 122.7433 388.137 122.6324 387.4082 123.342 386.8866 124.8667 386.3648 126.3969 386.1057 127.8842 386.1057 129.3409 386.1057 130.9408 386.3738 132.4208 386.9116 133.7848 387.453 135.1468 388.3997 137.2453 389.7539 140.0803ZM391.6851 127.2121C393.2484 128.1951 394.5597 129.6663 395.621 131.6307 396.6803 133.5915 397.0715 135.6293 396.7929 137.7386 396.273 137.7386 395.8387 137.6991 395.4886 137.6294 394.4472 137.7386 393.6665 137.9565 393.1447 138.282 391.5102 135.1573 390.6598 132.8122 390.5881 131.2481 390.6935 130.0864 391.0598 128.7386 391.6851 127.2121ZM417.9115 150.8769C415.4085 149.4986 413.5059 148.1973 412.2017 146.9801 410.8995 145.7626 410.1936 144.1344 410.0902 142.0982 409.9864 140.7166 410.6993 139.9711 412.2286 139.8623 413.7222 140.0105 415.1477 140.756 416.5038 142.0982 416.0517 142.9367 415.7731 143.7517 415.6693 144.5525 415.7391 146.2258 416.486 148.335 417.9115 150.8769ZM422.2902 153.3864C423.5766 153.2415 424.2214 152.2244 424.2214 150.3334 424.2214 148.4065 423.5426 146.2416 422.1867 143.8447 422.4654 143.8447 422.6743 143.8072 422.8121 143.7338 423.9249 143.8072 425.4721 144.8243 427.4535 146.7887L428.0786 144.4436C426.8979 142.7703 425.6274 141.6263 424.2716 141.008 422.9175 140.3895 421.3704 140.0445 419.6319 139.9711 417.0951 137.3542 414.5564 136.0457 412.0177 136.0457 410.1775 136.0457 408.7429 136.8448 407.7176 138.4447 406.692 140.0445 406.1792 141.882 406.1792 143.9538 406.1792 146.3151 406.9012 148.4688 408.3429 150.4137 409.7863 152.3585 411.6013 153.9136 413.7917 155.0772 415.982 156.2391 418.2063 156.8203 420.4661 156.8203 422.4118 156.8203 423.3872 156.259 423.3872 155.1328 423.3872 154.4409 423.021 153.8583 422.2902 153.3864ZM436.631 149.243 436.5255 149.3521C436.2129 149.2787 435.257 149.0607 433.658 148.6959 432.059 148.335 431.2069 148.1329 431.1034 148.0972 430.6173 147.2981 430.0866 146.5707 429.5132 145.9145 428.938 145.2623 428.1914 144.5168 427.2712 143.6803 426.3494 142.8437 425.524 142.0804 424.7932 141.3904L424.5843 143.7338C425.6631 144.6454 426.8282 145.9896 428.0786 147.7718 427.1068 147.7718 426.619 148.2599 426.619 149.243 426.619 150.4066 427.1496 151.74 428.2092 153.2506 429.2702 154.7575 430.6513 156.0212 432.3538 157.0382 432.7719 157.1865 433.1024 157.2562 433.3453 157.2562 433.9009 157.2562 434.1798 156.9291 434.1798 156.2769 434.1798 155.878 434.0404 155.3848 433.7617 154.804 438.5942 155.4222 441.0454 155.7298 441.1134 155.7298 441.8439 155.7298 442.3657 155.3598 442.6784 154.6143 442.9908 153.8691 443.1481 153.0397 443.1481 152.1315 443.1481 151.6221 443.1141 151.2967 443.0446 151.1521 442.9392 150.8964 442.296 150.2152 441.1134 149.1052 439.9325 147.9988 438.9766 146.9174 438.2476 145.8609 437.5151 144.4793 437.1168 143.4818 437.0471 142.8633 437.2223 142.0251 437.76 141.4996 438.664 141.2796 439.9841 141.353 442.4173 143.0277 445.9637 146.2989L446.2764 144.2273C444.0521 141.6444 441.9386 139.6191 439.9413 138.1445 437.944 136.6733 436.4558 135.9028 435.4838 135.8277 434.6836 135.7546 433.9117 136.0655 433.1631 136.7572 432.4147 137.4471 431.9734 138.4285 431.8322 139.6996 431.6947 141.1903 432.0162 142.6167 432.7988 143.9787 433.5795 145.3425 434.8585 147.0963 436.631 149.243ZM469.1154 151.4792C470.3661 152.532 471.8344 154.2586 473.5227 156.6592 475.2074 159.0582 476.4331 161.3477 477.1976 163.5267 475.8418 162.5474 474.3125 160.7848 472.61 158.2393 470.9055 155.6957 469.7408 153.4399 469.1154 151.4792ZM468.0204 146.6796C467.9524 146.4242 467.8988 146.0718 467.8648 145.618 467.8308 145.1602 467.7772 144.6812 467.7077 144.1718 467.8112 141.8068 468.7688 140.6271 470.575 140.6271 472.9048 140.6271 475.8579 142.4432 479.4398 146.0789L480.1187 144.3345C477.3711 141.353 475.2074 139.1902 473.6265 137.8477 472.0436 136.4998 470.1747 135.8277 468.0204 135.8277 466.6303 135.8277 465.5262 136.3014 464.7098 137.2453 463.8915 138.1927 463.4325 139.3189 463.3271 140.6271 463.1199 143.0994 463.2931 145.5537 463.8487 147.9898 464.4043 150.4227 465.2745 152.75 466.4554 154.9684 467.638 157.1865 469.0548 159.285 470.7054 161.2655 472.3563 163.2461 474.3822 165.3823 476.7797 167.6738 478.552 169.3077 479.7346 170.1281 480.3259 170.1281 480.8815 170.1281 481.1601 169.4166 481.1601 167.9992 481.1601 165.166 480.3866 162.3917 478.8394 159.6855 477.2925 156.9756 475.2862 154.239 472.8172 151.4792 470.7323 149.1894 469.1333 147.5895 468.0204 146.6796ZM482.8808 144.3345C482.8808 144.0788 482.8467 143.8072 482.777 143.5158 482.8127 142.6453 483.054 141.9999 483.5061 141.5801 483.9596 141.1634 484.6725 140.9525 485.6445 140.9525 486.652 140.9525 487.5829 141.226 488.4333 141.7731 489.2854 142.3165 490.8932 143.5354 493.257 145.4267L493.6748 143.4067C491.6239 140.6075 489.5212 138.509 487.3649 137.1112 485.2103 135.7098 483.4542 135.1752 482.1001 135.5023 479.7006 136.1925 478.5018 138.3355 478.5018 141.9355 478.5018 145.8269 480.274 149.4414 483.8187 152.7877 485.2443 154.2784 486.6698 155.0237 488.0957 155.0237 488.6512 155.0237 489.1462 154.8967 489.5802 154.6393 490.0144 154.3873 490.2341 153.9672 490.2341 153.3864 490.2341 152.185 489.2854 150.5693 487.3918 148.5332 485.498 146.4973 483.9936 145.0996 482.8808 144.3345ZM489.189 160.204C490.1644 161.8376 491.4686 162.6562 493.0997 162.6562 494.318 162.6562 494.9254 162.0558 494.9254 160.8562 494.9254 159.6569 494.5343 158.629 493.7536 157.7747 492.971 156.9203 492.0063 156.3857 490.8594 156.166 490.3019 156.166 489.816 156.3931 489.3979 156.8506 488.9818 157.3047 488.7547 157.8586 488.721 158.5111 488.8959 159.4191 489.0515 159.9857 489.189 160.204ZM492.6317 140.0803C491.5542 141.4619 491.0148 142.6076 491.0148 143.5158 491.0148 145.0066 492.4066 146.3902 495.1882 147.6626 496.2637 148.1329 497.1606 148.9516 497.8732 150.1152 498.5861 151.2771 499.9921 153.7761 502.0965 157.612 504.1996 161.4481 506.0665 164.5279 507.7009 166.8535 509.2642 168.8893 510.4987 169.9101 511.4027 169.9101 512.0637 169.9101 512.3925 169.1252 512.3925 167.5647 512.3585 165.8186 511.8888 164.0846 510.9866 162.356 510.0826 160.6292 508.2316 157.7747 505.4321 153.794 502.6346 149.815 500.7835 147.0963 499.8796 145.643 500.296 145.4267 500.6801 145.0996 501.0265 144.6616 501.3748 144.2273 501.6966 143.6533 501.9914 142.9438 502.2862 142.236 502.5039 141.7175 502.6433 141.3904L509.6823 145.9701 510.2558 144.0626C508.1692 141.7731 505.9287 139.991 503.5294 138.7182 503.9118 136.9003 503.7474 135.0181 503.0345 133.0733 502.3219 131.1284 501.3142 129.4143 500.01 127.9233 498.7077 126.4326 497.3247 125.2225 495.8634 124.2947 494.4039 123.3706 493.0997 122.8524 491.9528 122.7433 491.0148 122.6324 490.286 123.342 489.7641 124.8667 489.2426 126.3969 488.9835 127.8842 488.9835 129.3409 488.9835 130.9408 489.2513 132.4208 489.7894 133.7848 490.3288 135.1468 491.2775 137.2453 492.6317 140.0803ZM494.5612 127.2121C496.1262 128.1951 497.4375 129.6663 498.4985 131.6307 499.5581 133.5915 499.9493 135.6293 499.6706 137.7386 499.1488 137.7386 498.7148 137.6991 498.3664 137.6294 497.3247 137.7386 496.5423 137.9565 496.0208 138.282 494.3877 135.1573 493.5356 132.8122 493.4659 131.2481 493.5696 130.0864 493.9359 128.7386 494.5612 127.2121ZM514.9491 146.7887C517.2089 147.6626 519.0599 148.7889 520.5016 150.1707 521.945 151.5523 522.667 152.6051 522.667 153.3311 522.667 153.4776 522.6579 153.5777 522.6384 153.6313 522.6222 153.6866 522.5953 153.7152 522.5615 153.7152 522.3523 153.9334 521.7449 153.7849 520.7355 153.2772 519.728 152.7678 518.6846 151.9671 517.6074 150.8769 516.53 149.7864 515.6439 148.4243 514.9491 146.7887ZM514.8437 144.2273C514.7399 143.7911 514.6364 143.3336 514.531 142.8633 514.531 142.0251 514.8437 141.3726 515.4707 140.8989 516.096 140.4289 516.8945 140.1534 517.8682 140.0803 518.1469 140.1534 518.4595 140.1911 518.8062 140.1911 519.7102 140.3717 520.5892 140.6809 521.4413 141.1169 522.2917 141.5548 523.4743 142.3539 524.9857 143.5158 526.4989 144.6812 527.7246 145.6787 528.6626 146.5169L529.1841 144.3345C526.5062 141.319 523.9871 139.072 521.6236 137.6011 519.26 136.1299 517.1553 135.3934 515.3134 135.3934 513.5394 135.3934 512.1334 136.0548 511.09 137.3828 510.0486 138.7111 509.4913 140.3895 509.4215 142.4254 509.3161 144.4632 509.8986 146.6065 511.1668 148.8623 512.437 151.1144 514.1577 152.9949 516.3301 154.5052 518.5023 156.0121 520.7893 156.8203 523.1869 156.9291 525.8988 157.0382 527.2529 156.1141 527.2529 154.1514 527.2529 153.0235 526.8546 151.933 526.0558 150.8769 524.9072 149.2787 523.2994 147.9594 521.2324 146.9262 519.1634 145.8896 517.034 144.9904 514.8437 144.2273ZM537.4738 143.9538C538.4115 143.7338 538.8814 143.2244 538.8814 142.4254 538.8814 140.9363 538.4455 139.5011 537.5772 138.1192 536.7073 136.7359 535.6477 136.0457 534.3973 136.0457 532.4159 136.0457 531.337 136.7912 531.1655 138.282 531.337 139.7727 531.8495 141.126 532.7036 142.3449 533.554 143.564 534.6224 144.1718 535.9105 144.1718 536.2571 144.1718 536.7787 144.0986 537.4738 143.9538ZM553.1683 143.9538C554.1063 143.7338 554.5763 143.2244 554.5763 142.4254 554.5763 140.9363 554.1403 139.5011 553.2721 138.1192 552.4019 136.7359 551.3426 136.0457 550.0919 136.0457 548.1108 136.0457 547.0316 136.7912 546.8601 138.282 547.0316 139.7727 547.5444 141.126 548.3982 142.3449 549.2486 143.564 550.317 144.1718 551.605 144.1718 551.9517 144.1718 552.4733 144.0986 553.1683 143.9538ZM568.8632 143.9538C569.8009 143.7338 570.2709 143.2244 570.2709 142.4254 570.2709 140.9363 569.8349 139.5011 568.9667 138.1192 568.0967 136.7359 567.0371 136.0457 565.7868 136.0457 563.8054 136.0457 562.7265 136.7912 562.555 138.282 562.7265 139.7727 563.239 141.126 564.0931 142.3449 564.9435 143.564 566.0118 144.1718 567.2999 144.1718 567.6466 144.1718 568.1682 144.0986 568.8632 143.9538" fill="#025280"/>
<path transform="matrix(7.09531,0,0,-6.95219,0,648)" d="M28.423 66.0722C31.0516 64.6413 41.0193 62.3591 48.778 62.0898 52.3678 61.9651 57.3681 62.3682 58.2316 64.0729 58.8152 65.2243 57.0487 66.7151 55.2019 67.879 53.9379 68.6752 52.6008 69.1413 51.988 69.4185L51.5903 69.618 52.2391 69.5874C54.7194 68.5358 56.4109 67.9584 58.4991 66.2715 59.3561 65.4491 59.9077 64.2385 59.5823 63.4122 59.0907 62.1655 57.2876 61.0994 54.942 60.6396 50.9502 59.8564 44.6856 59.4456 38.643 60.1937 37.8899 60.2867 37.135 60.342 36.3855 60.438 32.449 60.9423 19.4618 64.2742 19.7949 68.5134 20.3664 75.7809 40.4495 72.7376 44.5728 71.725 44.5728 71.6139 44.5728 71.6814 44.5728 71.5708 42.7255 71.8424 40.8492 72.095 38.9911 72.2767 37.4581 72.426 33.1347 72.868 29.8208 72.3458 25.2791 71.6304 22.3418 69.3819 28.423 66.0722Z" fill="#025280" fill-rule="evenodd"/>
<path transform="matrix(7.09531,0,0,-6.95219,0,648)" stroke-width=".1091" stroke-linecap="butt" stroke-miterlimit="2.6131259" stroke-linejoin="miter" fill="none" stroke="#005aaa" d="M28.423 66.0722C31.0516 64.6413 41.0193 62.3591 48.778 62.0898 52.3678 61.9651 57.3681 62.3682 58.2316 64.0729 58.8152 65.2243 57.0487 66.7151 55.2019 67.879 53.9379 68.6752 52.6008 69.1413 51.988 69.4185L51.5903 69.618 52.2391 69.5874C54.7194 68.5358 56.4109 67.9584 58.4991 66.2715 59.3561 65.4491 59.9077 64.2385 59.5823 63.4122 59.0907 62.1655 57.2876 61.0994 54.942 60.6396 50.9502 59.8564 44.6856 59.4456 38.643 60.1937 37.8899 60.2867 37.135 60.342 36.3855 60.438 32.449 60.9423 19.4618 64.2742 19.7949 68.5134 20.3664 75.7809 40.4495 72.7376 44.5728 71.725 44.5728 71.6139 44.5728 71.6814 44.5728 71.5708 42.7255 71.8424 40.8492 72.095 38.9911 72.2767 37.4581 72.426 33.1347 72.868 29.8208 72.3458 25.2791 71.6304 22.3418 69.3819 28.423 66.0722Z"/>
<path transform="matrix(1,0,0,-1,0,648)" d="M513.2194 525.2681C438.5982 505.9049 350.1397 479.2275 283.379 438.6345 267.4383 441.0522 251.7758 444.46 235.7416 448.378L246.801 456.8389C239.5908 456.1554 228.1819 454.718 219.7358 452.9143 212.6718 454.9173 205.0163 457.835 199.182 461.1453 292.9184 509.9326 409.7854 516.2706 513.2194 525.2681" fill="#9db3c7" fill-rule="evenodd"/>
<path transform="matrix(1,0,0,-1,0,648)" d="M260.1601 419.6007C216.1769 376.4313 238.5374 333.1298 301.0263 287.1666 259.4449 313.4738 180.9482 370.6506 217.65 428.58 230.9939 425.5787 244.1035 421.4245 260.1601 419.6007" fill="#9db3c7" fill-rule="evenodd"/>
<path transform="matrix(1,0,0,-1,0,648)" d="M172.8173 444.3968C162.7597 438.2663 147.9223 422.5303 144.6565 417.2763 158.2724 427.502 164.3428 431.7313 181.5415 440.6006 178.7329 441.8124 175.6278 443.1827 172.8173 444.3968Z" fill="#9db3c7" fill-rule="evenodd"/>
<path transform="matrix(1,0,0,-1,0,648)" stroke-width=".216" stroke-linecap="butt" stroke-miterlimit="2.6131259" stroke-linejoin="miter" fill="none" stroke="#abbfcc" d="M172.8173 444.3968C162.7597 438.2663 147.9223 422.5303 144.6565 417.2763 158.2724 427.502 164.3428 431.7313 181.5415 440.6006 178.7329 441.8124 175.6278 443.1827 172.8173 444.3968Z"/>
<path transform="matrix(1,0,0,-1,0,648)" d="M82.2447 208.4357V259.6782H100.2957C107.2732 259.6782 112.5471 258.7207 116.1422 256.818 119.7374 254.9154 122.5559 252.1383 124.5977 248.4746 126.6395 244.823 127.6668 240.4151 127.6668 235.2742 127.6668 230.3935 126.7274 225.9261 124.8608 221.8725 122.9944 217.8074 120.1507 214.5574 116.3302 212.1111 112.5094 209.6649 107.2106 208.4357 100.4085 208.4357ZM89.9487 213.872H99.8198C104.9559 213.872 108.8014 214.6399 111.3571 216.1763 113.9125 217.7127 115.9169 220.1355 117.3574 223.4682 118.7977 226.7889 119.5243 230.4879 119.5243 234.5769 119.5243 238.1814 118.8981 241.4548 117.6579 244.4213 116.4053 247.3875 114.3884 249.7745 111.5949 251.5592 108.8141 253.3436 103.703 254.2419 96.2997 254.2419H89.9487ZM141.0704 194.7626 147.5218 208.4238 132.1138 246.0402H139.9181L151.3176 217.7365 163.5313 246.0402H170.3582L148.5867 194.7626ZM205.4208 209.5821C200.7859 208.2467 196.7896 207.5729 193.4201 207.5729 189.9 207.5729 186.6807 208.4831 183.7369 210.291 180.8056 212.0992 178.6008 214.4866 177.1101 217.4409 175.6193 220.3954 174.8679 223.7281 174.8679 227.4506 174.8679 232.9815 176.4836 237.6023 179.7032 241.3131 182.935 245.012 187.9084 246.8676 194.6477 246.8676 197.7542 246.8676 201.1992 246.4656 204.9823 245.6501V239.9423C200.9486 241.0767 197.6542 241.6439 195.1237 241.6439 191.1027 241.6439 188.0836 240.2138 186.0542 237.3659 184.0249 234.5179 183.0104 231.1379 183.0104 227.238 183.0104 223.0189 184.1502 219.6037 186.4426 216.9918 188.7225 214.3803 191.6915 213.0803 195.3366 213.0803 198.606 213.0803 201.9634 213.872 205.4208 215.4674ZM216.5196 208.4357V246.0402H223.7477V208.4357ZM216.5196 252.8592V259.6782H223.7477V252.8592ZM238.2409 208.4357V246.0402H245.469V238.9731C247.3104 241.4903 249.44 243.4286 251.8702 244.8111 254.3131 246.1822 256.8308 246.8676 259.4614 246.8676 262.8312 246.8676 265.5746 245.863 267.679 243.8422 269.7834 241.8214 270.8357 239.0204 270.8357 235.4394V208.4357H263.6079V233.2295C263.6079 235.8295 263.3573 237.5549 262.8686 238.3824 262.3802 239.2214 261.7036 239.8595 260.8143 240.3085 259.9373 240.7575 258.9979 240.9823 257.9958 240.9823 256.2043 240.9823 254.2754 240.4621 252.2083 239.4221 250.1416 238.3824 247.8866 236.1722 245.469 232.7805V208.4357ZM314.5669 209.6529C309.6564 208.2702 305.4472 207.5729 301.9524 207.5729 295.664 207.5729 290.7283 209.5347 287.1332 213.4701 283.538 217.4054 281.734 222.0616 281.734 227.4151 281.734 230.9369 282.5232 234.305 284.1143 237.4841 285.7051 240.6747 287.7846 243.0386 290.3525 244.5866 292.9207 246.1348 295.9393 246.903 299.4219 246.903 304.0818 246.903 307.8023 245.3431 310.5833 242.223 313.3644 239.1151 314.7548 234.4467 314.7548 228.2426L314.7171 226.1625H289.1123C289.5131 222.8417 290.2774 220.2772 291.4299 218.4693 292.5697 216.6727 294.0979 215.2664 296.0147 214.2618 297.9187 213.2575 300.3364 212.7611 303.2802 212.7611 304.7709 212.7611 306.2616 212.8793 307.7396 213.1274 309.2304 213.3638 311.4978 214.0138 314.5669 215.0538ZM289.438 231.2915H307.4893C307.4893 235.0497 306.6874 237.7324 305.0966 239.3512 303.5058 240.9704 301.4637 241.774 298.9709 241.774 296.1275 241.774 293.91 240.8995 292.3191 239.1622 290.7283 237.4248 289.7637 234.8014 289.438 231.2915" fill="#ffffff"/>
</g>
</svg>
