<svg width="470" height="156" viewBox="0 0 470 156" fill="none" xmlns="http://www.w3.org/2000/svg">
<path fill-rule="evenodd" clip-rule="evenodd" d="M239.734 33.9063V70.1927H245.224V56.9167H250.026C259.01 56.9167 264.063 52.7865 264.063 45.7083C264.063 38.474 258.635 33.9063 249.651 33.9063H239.734ZM245.224 37.9271H248.406C254.391 37.9271 258.26 40.7604 258.26 45.3281C258.26 50.2813 254.703 53.0573 248.031 53.0573H245.224V37.9271ZM271.792 33.1406V70.1927H277.036V49.3021C279.464 47.6146 281.589 46.7969 283.833 46.7969C288.385 46.7969 289.26 49.4115 289.26 54.1458V70.1927H294.438V52.8385C294.438 46.3073 291.13 42.9896 285.328 42.9896C282.276 42.9896 280.031 43.75 277.594 45.6563L277.036 45.5469V33.1406H271.792ZM317.766 67.7969V70.1927H322.938V52.0208C322.938 45.9271 319.26 43.099 311.464 43.099C308.344 43.099 305.411 43.6406 302.297 44.625V49.901H304.786C306.786 47.8333 309.156 46.7969 311.714 46.7969C315.583 46.7969 317.766 48.2656 317.766 50.7188V52.9479L314.583 53.4375C305.479 54.9583 300.609 57.1406 300.609 62.7969C300.609 67.4219 304.104 70.8594 309.594 70.8594C312.771 70.8594 315.516 69.8177 317.766 67.7969ZM317.766 55.9948V64.6458C315.703 66.2188 313.771 66.9844 311.651 66.9844C308.406 66.9844 306.099 65.026 306.099 62.5208C306.099 58.9844 309.844 57.3542 317.766 55.9948ZM331.547 43.75V70.1927H336.786V55.5052C336.786 50.4479 338.474 49.0833 344.521 49.0833H347.141V43.75H346.766C341.776 43.75 339.031 44.8958 337.036 48.2656L336.536 47.9427C336.724 46.9063 336.786 45.875 336.786 44.7865V43.75H331.547ZM352.38 43.75V70.1927H357.62V49.3021C359.74 47.6146 361.734 46.7969 364.104 46.7969C368.349 46.7969 369.656 49.1927 369.656 54.1458V70.1927H374.583V49.3021C377.021 47.6146 379.198 46.7969 381.38 46.7969C385.438 46.7969 386.995 49.1354 386.995 54.1458V70.1927H392.177V53.0573C392.177 46.3646 388.995 42.9896 383.068 42.9896C379.073 42.9896 376.583 44.2396 373.901 47.2865C372.339 44.4583 369.406 42.9896 365.479 42.9896C362.609 42.9896 360.427 43.8073 358.245 45.6563L357.62 45.5469V43.75H352.38ZM415.625 67.7969V70.1927H420.802V52.0208C420.802 45.9271 417.125 43.099 409.323 43.099C406.208 43.099 403.276 43.6406 400.156 44.625V49.901H402.651C404.651 47.8333 407.021 46.7969 409.578 46.7969C413.443 46.7969 415.625 48.2656 415.625 50.7188V52.9479L412.443 53.4375C403.339 54.9583 398.474 57.1406 398.474 62.7969C398.474 67.4219 401.969 70.8594 407.453 70.8594C410.635 70.8594 413.38 69.8177 415.625 67.7969ZM415.625 55.9948V64.6458C413.568 66.2188 411.635 66.9844 409.516 66.9844C406.271 66.9844 403.964 65.026 403.964 62.5208C403.964 58.9844 407.703 57.3542 415.625 55.9948Z" fill="white"></path>
<path fill-rule="evenodd" clip-rule="evenodd" d="M167.563 109.729C166.802 110.604 165.776 111.786 164.469 113.276C163.167 114.76 162.021 116.047 161.047 117.125C160.068 118.203 159.047 119.219 157.99 120.172C156.937 121.13 155.99 121.839 155.156 122.302C154.714 122.573 154.203 122.714 153.63 122.714C152.823 122.714 152.057 122.156 151.339 121.052C150.625 119.948 150.24 118.974 150.188 118.125C150.24 117.224 150.797 115.995 151.87 114.438C152.99 112.911 154.151 111.401 155.349 109.917C156.552 108.427 157.594 107.172 158.484 106.151C159.37 105.125 160.635 103.656 162.276 101.75C162.693 101.229 162.906 100.75 162.906 100.313C162.906 99.7708 162.448 99.4948 161.536 99.4948C160.62 99.4948 159.396 99.7917 157.854 100.396C157.099 100.698 156.281 101.031 155.411 101.401C154.536 101.766 153.781 102.094 153.141 102.38C152.5 102.667 151.828 103.016 151.125 103.427C150.917 103.563 150.568 103.766 150.089 104.042C149.604 104.313 149.13 104.552 148.661 104.755C148.193 104.964 147.786 105.078 147.448 105.104C146.87 105.104 146.547 104.656 146.469 103.755C146.521 103.536 146.547 103.26 146.547 102.938C146.911 101.188 147.281 100.021 147.661 99.4323C148.042 98.8437 148.76 98.1042 149.833 97.2031C151.896 95.3177 153.135 94.3802 153.552 94.3802C153.604 94.3802 153.63 94.4583 153.63 94.6198C153.63 94.9792 153.276 95.6458 152.573 96.625C154.818 95.7813 156.641 95.125 158.052 94.6615C159.458 94.1979 160.948 93.9688 162.51 93.9688C163.479 93.9688 164.167 94.0208 164.589 94.1302C164.953 94.2135 165.313 94.526 165.661 95.0729C166.016 95.6198 166.302 96.2604 166.526 97C166.745 97.7344 166.859 98.4844 166.859 99.25C166.859 99.9323 166.74 100.547 166.505 101.094C165.906 102.182 165.276 103.214 164.625 104.182C163.974 105.151 163.203 106.229 162.318 107.417C161.427 108.604 160.531 109.802 159.615 111C159.328 111.354 158.766 112.047 157.932 113.068C157.099 114.094 156.458 114.938 156.016 115.604C155.573 116.276 155.469 116.667 155.703 116.776C155.99 116.938 156.76 116.474 158.01 115.38C159.266 114.292 160.505 113.104 161.729 111.823C163.505 110.021 165.156 108.271 166.682 106.578C168.208 104.885 170.104 102.719 172.375 100.068C172.766 99.5781 173.208 99.026 173.703 98.4115C174.198 97.7969 174.703 97.2604 175.214 96.8125C175.719 96.3594 176.224 96.1354 176.719 96.1354C177.214 96.1354 177.656 96.4271 178.047 97C178.438 97.5677 178.635 98.1458 178.635 98.7135C178.635 99.0469 178.557 99.3594 178.401 99.6563C178.245 99.9583 178.063 100.26 177.854 100.557C177.646 100.859 177.24 101.448 176.641 102.318C175.438 104.094 174.214 106.026 172.964 108.115C171.708 110.203 170.677 112.078 169.87 113.745C169.057 115.411 168.641 116.609 168.62 117.349C168.698 117.62 168.802 117.797 168.932 117.88C169.349 118.073 170.469 117.359 172.297 115.75C174.125 114.141 175.724 112.406 177.109 110.552C177.813 109.568 178.531 108.516 179.26 107.396C179.99 106.281 180.63 105.208 181.177 104.182C181.724 103.161 182.052 102.401 182.156 101.911C182.026 101.854 181.922 101.635 181.844 101.255C181.844 100.734 182.021 100.094 182.375 99.3333C182.724 98.5677 183.146 97.901 183.646 97.3229C184.141 96.75 184.557 96.4635 184.896 96.4635C185.469 96.4635 185.76 97.1875 185.76 98.6354V99.6563C185.521 102.359 184.375 105.531 182.313 109.177C180.255 112.823 177.854 116.026 175.115 118.781C173.755 120.146 172.656 121.13 171.807 121.729C170.958 122.328 170.104 122.63 169.245 122.63C168.172 122.63 167.245 122.188 166.464 121.297C165.682 120.411 165.25 119.406 165.172 118.292C165.198 117.578 165.339 116.776 165.583 115.875C165.833 114.974 166.141 114 166.505 112.948C166.87 111.896 167.224 110.823 167.563 109.729ZM185.953 114.156C187.651 113.5 189.036 112.651 190.12 111.615C191.203 110.578 191.745 109.786 191.745 109.24C191.745 109.13 191.74 109.057 191.724 109.016C191.714 108.974 191.693 108.953 191.667 108.953C191.51 108.786 191.052 108.901 190.297 109.281C189.542 109.661 188.755 110.266 187.948 111.083C187.141 111.901 186.474 112.927 185.953 114.156ZM185.875 116.078C185.797 116.406 185.719 116.75 185.641 117.104C185.641 117.729 185.875 118.219 186.344 118.578C186.813 118.932 187.411 119.135 188.146 119.193C188.354 119.135 188.589 119.109 188.849 119.109C189.526 118.974 190.188 118.74 190.823 118.411C191.464 118.083 192.349 117.484 193.484 116.609C194.62 115.734 195.542 114.99 196.245 114.359L196.635 115.995C194.63 118.26 192.734 119.948 190.964 121.052C189.188 122.156 187.609 122.714 186.229 122.714C184.896 122.714 183.839 122.214 183.057 121.219C182.276 120.219 181.854 118.958 181.802 117.432C181.724 115.901 182.161 114.292 183.115 112.599C184.068 110.906 185.359 109.495 186.99 108.359C188.62 107.229 190.333 106.62 192.135 106.542C194.172 106.458 195.188 107.151 195.188 108.625C195.188 109.474 194.885 110.292 194.286 111.083C193.427 112.286 192.219 113.276 190.667 114.052C189.115 114.828 187.516 115.505 185.875 116.078ZM216.828 111.74C216.281 112.12 215.682 112.552 215.026 113.026C214.375 113.505 213.88 113.885 213.542 114.177C213.203 114.464 212.87 114.839 212.542 115.302C212.219 115.766 212.016 116.281 211.938 116.859C212.12 118.083 213.125 118.807 214.948 119.026C217.271 118.943 220.167 117.349 223.635 114.234L224.104 115.917C220.036 120.339 216.542 122.547 213.62 122.547C212.078 122.547 210.948 121.911 210.214 120.646C209.484 119.375 209.12 117.896 209.12 116.203C209.12 114.672 209.552 113.344 210.411 112.208C211.271 111.078 212.578 109.964 214.323 108.87C217.167 107.068 219.255 106.214 220.583 106.292C221.813 106.292 222.427 106.88 222.427 108.052C222.427 108.984 221.891 110.125 220.818 111.495C219.776 112.776 218.865 113.474 218.083 113.578C217.453 113.526 217.036 112.911 216.828 111.74ZM235.495 110.797V110.714C233.198 111.531 231.38 112.229 230.036 112.802C228.693 113.375 227.484 114.141 226.417 115.094C225.344 116.052 224.875 117.115 225.005 118.292C225.005 118.724 225.245 119 225.714 119.109C226.547 119.083 227.917 118.193 229.818 116.448C231.724 114.698 233.615 112.818 235.495 110.797ZM237.844 109.651C238.547 110.005 238.896 110.51 238.896 111.167C238.896 111.823 238.573 112.547 237.922 113.333C236.38 115.219 235.599 116.609 235.573 117.51C235.625 118.057 235.953 118.375 236.552 118.453C237.62 118.589 239.552 117.469 242.344 115.094L242.656 116.776C241.167 118.333 239.474 119.823 237.568 121.255C235.661 122.693 234.281 123.297 233.422 123.083C232.479 122.865 231.974 122.182 231.896 121.031C231.974 119.776 232.479 118.193 233.422 116.281L233.344 116.203C232.375 117.021 231.38 117.865 230.349 118.74C229.318 119.615 228.411 120.333 227.63 120.891C226.844 121.453 226.234 121.813 225.792 121.974C225.214 122.167 224.474 121.688 223.557 120.542C222.646 119.396 222.188 118.25 222.188 117.104C222.188 116.609 222.214 116.281 222.266 116.12C222.635 114.615 223.646 113.161 225.302 111.76C226.958 110.354 228.854 109.188 230.995 108.26C233.135 107.328 234.88 106.813 236.24 106.703H236.63C237.281 106.703 237.859 106.885 238.37 107.255C238.88 107.625 239.135 108.109 239.135 108.708C239.135 109.036 238.703 109.349 237.844 109.651ZM249.229 112.313L249.151 112.229C248.917 112.286 248.198 112.448 247 112.724C245.802 112.995 245.156 113.146 245.083 113.172C244.714 113.771 244.318 114.318 243.885 114.813C243.458 115.302 242.896 115.859 242.203 116.49C241.51 117.115 240.896 117.688 240.349 118.208L240.188 116.448C241 115.766 241.87 114.755 242.813 113.417C242.083 113.417 241.719 113.047 241.719 112.313C241.719 111.438 242.115 110.438 242.906 109.302C243.703 108.172 244.745 107.219 246.021 106.458C246.333 106.344 246.583 106.292 246.766 106.292C247.182 106.292 247.391 106.542 247.391 107.031C247.391 107.328 247.286 107.698 247.078 108.135C250.703 107.672 252.542 107.438 252.594 107.438C253.141 107.438 253.531 107.719 253.766 108.276C254 108.839 254.12 109.458 254.12 110.141C254.12 110.526 254.094 110.771 254.042 110.875C253.964 111.068 253.484 111.583 252.594 112.417C251.708 113.245 250.99 114.057 250.443 114.849C249.896 115.891 249.594 116.635 249.542 117.104C249.672 117.729 250.078 118.125 250.755 118.292C251.745 118.234 253.573 116.979 256.234 114.521L256.469 116.078C254.802 118.016 253.214 119.536 251.714 120.646C250.214 121.75 249.099 122.328 248.37 122.385C247.771 122.443 247.188 122.208 246.625 121.688C246.068 121.167 245.734 120.432 245.63 119.479C245.526 118.359 245.766 117.286 246.354 116.266C246.938 115.24 247.901 113.922 249.229 112.313ZM260.734 114.156C262.432 113.5 263.818 112.651 264.901 111.615C265.984 110.578 266.526 109.786 266.526 109.24C266.526 109.13 266.521 109.057 266.505 109.016C266.495 108.974 266.474 108.953 266.448 108.953C266.292 108.786 265.839 108.901 265.078 109.281C264.323 109.661 263.542 110.266 262.729 111.083C261.922 111.901 261.255 112.927 260.734 114.156ZM260.656 116.078C260.578 116.406 260.5 116.75 260.422 117.104C260.422 117.729 260.656 118.219 261.125 118.578C261.594 118.932 262.198 119.135 262.927 119.193C263.135 119.135 263.37 119.109 263.63 119.109C264.307 118.974 264.969 118.74 265.609 118.411C266.245 118.083 267.135 117.484 268.271 116.609C269.401 115.734 270.323 114.99 271.026 114.359L271.417 115.995C269.411 118.26 267.521 119.948 265.745 121.052C263.969 122.156 262.391 122.714 261.01 122.714C259.677 122.714 258.625 122.214 257.839 121.219C257.057 120.219 256.641 118.958 256.589 117.432C256.51 115.901 256.948 114.292 257.896 112.599C258.849 110.906 260.141 109.495 261.771 108.359C263.401 107.229 265.12 106.62 266.917 106.542C268.953 106.458 269.969 107.151 269.969 108.625C269.969 109.474 269.672 110.292 269.073 111.083C268.208 112.286 267.005 113.276 265.453 114.052C263.901 114.828 262.302 115.505 260.656 116.078ZM283.432 119.193C282.625 118.156 282.219 117.292 282.219 116.609C282.219 115.495 283.26 114.453 285.349 113.5C286.161 113.146 286.833 112.531 287.365 111.656C287.901 110.781 288.958 108.906 290.536 106.026C292.115 103.146 293.516 100.833 294.74 99.0885C295.917 97.5573 296.844 96.7917 297.521 96.7917C298.016 96.7917 298.266 97.3802 298.266 98.5521C298.24 99.8646 297.885 101.167 297.208 102.464C296.531 103.76 295.141 105.906 293.042 108.896C290.938 111.88 289.552 113.922 288.87 115.016C289.188 115.177 289.474 115.422 289.734 115.75C289.995 116.078 290.234 116.51 290.458 117.042C290.677 117.573 290.844 117.964 290.948 118.208L296.229 114.771L296.661 116.203C295.094 117.922 293.411 119.26 291.609 120.214C291.896 121.578 291.776 122.995 291.24 124.453C290.703 125.917 289.948 127.203 288.969 128.323C287.99 129.443 286.953 130.349 285.859 131.047C284.766 131.74 283.786 132.13 282.922 132.214C282.219 132.292 281.672 131.76 281.281 130.615C280.891 129.469 280.693 128.349 280.693 127.255C280.693 126.057 280.896 124.943 281.297 123.922C281.703 122.896 282.417 121.323 283.432 119.193ZM284.88 128.854C286.052 128.115 287.036 127.01 287.833 125.536C288.63 124.063 288.922 122.536 288.714 120.948C288.323 120.948 288 120.979 287.734 121.031C286.953 120.948 286.37 120.786 285.979 120.542C284.75 122.891 284.109 124.651 284.057 125.823C284.135 126.698 284.411 127.708 284.88 128.854ZM304.563 111.083C302.688 112.12 301.26 113.094 300.281 114.01C299.302 114.927 298.771 116.146 298.693 117.677C298.615 118.714 299.151 119.276 300.297 119.354C301.422 119.245 302.49 118.682 303.505 117.677C303.167 117.047 302.958 116.432 302.88 115.833C302.932 114.578 303.495 112.995 304.563 111.083ZM307.849 109.198C308.818 109.307 309.302 110.073 309.302 111.495C309.302 112.938 308.792 114.562 307.771 116.365C307.984 116.365 308.141 116.391 308.245 116.448C309.078 116.391 310.24 115.63 311.724 114.156L312.193 115.917C311.307 117.172 310.354 118.031 309.339 118.495C308.323 118.958 307.161 119.219 305.854 119.276C303.953 121.24 302.047 122.224 300.141 122.224C298.76 122.224 297.682 121.62 296.911 120.422C296.146 119.219 295.76 117.839 295.76 116.281C295.76 114.51 296.302 112.891 297.385 111.432C298.469 109.974 299.828 108.802 301.474 107.932C303.115 107.057 304.786 106.62 306.479 106.62C307.943 106.62 308.672 107.042 308.672 107.891C308.672 108.406 308.401 108.844 307.849 109.198ZM318.615 112.313L318.536 112.229C318.297 112.286 317.583 112.448 316.38 112.724C315.182 112.995 314.542 113.146 314.464 113.172C314.099 113.771 313.703 114.318 313.271 114.813C312.839 115.302 312.281 115.859 311.589 116.49C310.896 117.115 310.276 117.688 309.729 118.208L309.573 116.448C310.38 115.766 311.255 114.755 312.193 113.417C311.464 113.417 311.099 113.047 311.099 112.313C311.099 111.438 311.5 110.438 312.292 109.302C313.089 108.172 314.125 107.219 315.401 106.458C315.719 106.344 315.964 106.292 316.146 106.292C316.563 106.292 316.776 106.542 316.776 107.031C316.776 107.328 316.667 107.698 316.458 108.135C320.089 107.672 321.927 107.438 321.979 107.438C322.526 107.438 322.917 107.719 323.151 108.276C323.385 108.839 323.505 109.458 323.505 110.141C323.505 110.526 323.479 110.771 323.427 110.875C323.349 111.068 322.865 111.583 321.979 112.417C321.089 113.245 320.375 114.057 319.828 114.849C319.276 115.891 318.979 116.635 318.927 117.104C319.057 117.729 319.458 118.125 320.141 118.292C321.13 118.234 322.958 116.979 325.62 114.521L325.854 116.078C324.182 118.016 322.599 119.536 321.099 120.646C319.599 121.75 318.484 122.328 317.75 122.385C317.151 122.443 316.573 122.208 316.01 121.688C315.448 121.167 315.12 120.432 315.01 119.479C314.906 118.359 315.151 117.286 315.74 116.266C316.323 115.24 317.281 113.922 318.615 112.313ZM342.995 110.63C343.932 109.844 345.036 108.547 346.302 106.74C347.568 104.943 348.484 103.219 349.057 101.583C348.042 102.318 346.896 103.646 345.615 105.557C344.339 107.464 343.464 109.161 342.995 110.63ZM342.172 114.234C342.12 114.427 342.078 114.693 342.052 115.031C342.031 115.375 341.99 115.734 341.938 116.12C342.016 117.896 342.734 118.781 344.089 118.781C345.839 118.781 348.052 117.417 350.74 114.688L351.25 115.995C349.188 118.234 347.568 119.859 346.38 120.87C345.193 121.88 343.786 122.385 342.172 122.385C341.13 122.385 340.297 122.031 339.688 121.323C339.073 120.609 338.729 119.766 338.651 118.781C338.495 116.927 338.625 115.083 339.042 113.25C339.458 111.427 340.109 109.677 340.995 108.01C341.885 106.344 342.948 104.771 344.188 103.281C345.427 101.797 346.948 100.193 348.745 98.4688C350.073 97.2448 350.964 96.625 351.406 96.625C351.823 96.625 352.031 97.1615 352.031 98.224C352.031 100.354 351.453 102.438 350.292 104.469C349.13 106.505 347.625 108.557 345.771 110.63C344.208 112.349 343.005 113.552 342.172 114.234ZM353.323 115.995C353.323 116.188 353.297 116.391 353.245 116.609C353.271 117.266 353.453 117.75 353.792 118.068C354.135 118.38 354.667 118.536 355.396 118.536C356.156 118.536 356.854 118.333 357.49 117.922C358.13 117.51 359.339 116.599 361.109 115.177L361.427 116.693C359.885 118.797 358.307 120.37 356.688 121.422C355.073 122.474 353.755 122.875 352.74 122.63C350.938 122.109 350.036 120.5 350.036 117.797C350.036 114.875 351.37 112.161 354.026 109.651C355.099 108.531 356.167 107.969 357.24 107.969C357.656 107.969 358.026 108.068 358.354 108.26C358.677 108.448 358.844 108.766 358.844 109.198C358.844 110.104 358.13 111.318 356.708 112.844C355.286 114.375 354.161 115.422 353.323 115.995ZM358.057 104.078C358.792 102.854 359.771 102.24 360.995 102.24C361.906 102.24 362.365 102.688 362.365 103.589C362.365 104.49 362.068 105.26 361.484 105.906C360.896 106.547 360.172 106.948 359.313 107.115C358.896 107.115 358.531 106.943 358.214 106.599C357.901 106.255 357.734 105.844 357.708 105.349C357.839 104.667 357.953 104.245 358.057 104.078ZM360.641 119.193C359.833 118.156 359.427 117.292 359.427 116.609C359.427 115.495 360.474 114.453 362.563 113.5C363.37 113.146 364.042 112.531 364.578 111.656C365.109 110.781 366.167 108.906 367.745 106.026C369.323 103.146 370.724 100.833 371.953 99.0885C373.125 97.5573 374.052 96.7917 374.729 96.7917C375.224 96.7917 375.474 97.3802 375.474 98.5521C375.448 99.8646 375.094 101.167 374.417 102.464C373.74 103.76 372.349 105.906 370.25 108.896C368.151 111.88 366.76 113.922 366.083 115.016C366.396 115.177 366.682 115.422 366.943 115.75C367.203 116.078 367.448 116.51 367.667 117.042C367.885 117.573 368.052 117.964 368.156 118.208L373.438 114.771L373.87 116.203C372.302 117.922 370.62 119.26 368.823 120.214C369.109 121.578 368.984 122.995 368.448 124.453C367.917 125.917 367.156 127.203 366.182 128.323C365.203 129.443 364.167 130.349 363.068 131.047C361.974 131.74 360.995 132.13 360.13 132.214C359.427 132.292 358.88 131.76 358.49 130.615C358.099 129.469 357.906 128.349 357.906 127.255C357.906 126.057 358.104 124.943 358.51 123.922C358.911 122.896 359.625 121.323 360.641 119.193ZM362.089 128.854C363.266 128.115 364.25 127.01 365.047 125.536C365.839 124.063 366.135 122.536 365.927 120.948C365.531 120.948 365.208 120.979 364.948 121.031C364.167 120.948 363.578 120.786 363.188 120.542C361.958 122.891 361.323 124.651 361.271 125.823C361.344 126.698 361.62 127.708 362.089 128.854ZM377.391 114.156C379.089 113.5 380.479 112.651 381.557 111.615C382.641 110.578 383.182 109.786 383.182 109.24C383.182 109.13 383.177 109.057 383.161 109.016C383.151 108.974 383.13 108.953 383.104 108.953C382.948 108.786 382.49 108.901 381.734 109.281C380.979 109.661 380.193 110.266 379.385 111.083C378.578 111.901 377.911 112.927 377.391 114.156ZM377.313 116.078C377.234 116.406 377.156 116.75 377.078 117.104C377.078 117.729 377.313 118.219 377.781 118.578C378.25 118.932 378.854 119.135 379.583 119.193C379.792 119.135 380.026 119.109 380.286 119.109C380.964 118.974 381.625 118.74 382.266 118.411C382.901 118.083 383.792 117.484 384.922 116.609C386.057 115.734 386.979 114.99 387.682 114.359L388.073 115.995C386.068 118.26 384.177 119.948 382.401 121.052C380.625 122.156 379.047 122.714 377.667 122.714C376.333 122.714 375.276 122.214 374.495 121.219C373.714 120.219 373.297 118.958 373.245 117.432C373.167 115.901 373.599 114.292 374.552 112.599C375.505 110.906 376.797 109.495 378.427 108.359C380.057 107.229 381.776 106.62 383.573 106.542C385.609 106.458 386.625 107.151 386.625 108.625C386.625 109.474 386.328 110.292 385.729 111.083C384.865 112.286 383.656 113.276 382.109 114.052C380.552 114.828 378.958 115.505 377.313 116.078ZM394.297 116.281C395 116.448 395.354 116.828 395.354 117.432C395.354 118.547 395.026 119.625 394.375 120.667C393.719 121.703 392.927 122.224 391.99 122.224C390.5 122.224 389.693 121.661 389.563 120.542C389.693 119.422 390.078 118.406 390.719 117.49C391.354 116.578 392.156 116.12 393.125 116.12C393.385 116.12 393.776 116.172 394.297 116.281ZM406.073 116.281C406.781 116.448 407.13 116.828 407.13 117.432C407.13 118.547 406.807 119.625 406.151 120.667C405.5 121.703 404.703 122.224 403.766 122.224C402.281 122.224 401.469 121.661 401.339 120.542C401.469 119.422 401.854 118.406 402.495 117.49C403.135 116.578 403.938 116.12 404.901 116.12C405.161 116.12 405.552 116.172 406.073 116.281ZM417.854 116.281C418.557 116.448 418.911 116.828 418.911 117.432C418.911 118.547 418.583 119.625 417.932 120.667C417.281 121.703 416.484 122.224 415.547 122.224C414.057 122.224 413.25 121.661 413.12 120.542C413.25 119.422 413.635 118.406 414.276 117.49C414.911 116.578 415.714 116.12 416.682 116.12C416.943 116.12 417.333 116.172 417.854 116.281Z" fill="white"></path>
<path fill-rule="evenodd" clip-rule="evenodd" d="M52.6445 67.862V29.3828H66.1914C71.4258 29.3828 75.3841 30.1016 78.082 31.5286C80.7799 32.9609 82.8945 35.0443 84.431 37.7943C85.9622 40.5391 86.7331 43.8464 86.7331 47.7109C86.7331 51.3724 86.0299 54.7266 84.6289 57.7734C83.2279 60.8255 81.0924 63.2682 78.2227 65.1016C75.3581 66.9401 71.3789 67.862 66.2747 67.862H52.6445ZM58.4258 63.7786H65.832C69.6862 63.7786 72.5768 63.2057 74.4935 62.0495C76.4102 60.8984 77.9154 59.0755 78.9935 56.5755C80.0768 54.0807 80.6237 51.3047 80.6237 48.2318C80.6237 45.5234 80.1497 43.0651 79.2227 40.8411C78.2799 38.612 76.7695 36.8203 74.6706 35.4818C72.582 34.138 68.7487 33.4661 63.1914 33.4661H58.4258V63.7786ZM96.7904 78.1328L101.634 67.8724L90.0716 39.6224H95.9258L104.483 60.8776L113.65 39.6224H118.775L102.431 78.1328H96.7904ZM145.087 67.0026C141.608 68.0026 138.608 68.513 136.082 68.513C133.441 68.513 131.025 67.8255 128.811 66.4714C126.613 65.112 124.957 63.3203 123.842 61.1016C122.723 58.8828 122.155 56.3776 122.155 53.5859C122.155 49.4297 123.368 45.9609 125.785 43.1745C128.212 40.3984 131.947 39.0026 137.004 39.0026C139.332 39.0026 141.921 39.3047 144.759 39.9193V44.2057C141.733 43.3516 139.259 42.9245 137.358 42.9245C134.342 42.9245 132.077 43.9974 130.551 46.138C129.03 48.2786 128.27 50.8151 128.27 53.7422C128.27 56.9141 129.124 59.4766 130.842 61.4401C132.556 63.3984 134.785 64.3776 137.52 64.3776C139.973 64.3776 142.493 63.7786 145.087 62.5807V67.0026ZM153.415 67.862V39.6224H158.842V67.862H153.415ZM153.415 34.5026V29.3828H158.842V34.5026H153.415ZM169.717 67.862V39.6224H175.145V44.9297C176.525 43.0391 178.124 41.5859 179.947 40.5495C181.78 39.5182 183.671 39.0026 185.645 39.0026C188.176 39.0026 190.233 39.7578 191.811 41.2734C193.395 42.7943 194.181 44.8932 194.181 47.5859V67.862H188.759V49.2422C188.759 47.2891 188.572 45.9974 188.202 45.3724C187.837 44.7422 187.327 44.263 186.66 43.9297C186.004 43.5911 185.296 43.4245 184.546 43.4245C183.202 43.4245 181.754 43.8151 180.202 44.5911C178.65 45.3724 176.957 47.0339 175.145 49.5807V67.862H169.717ZM227.004 66.9505C223.316 67.987 220.16 68.513 217.535 68.513C212.816 68.513 209.113 67.0391 206.415 64.0807C203.717 61.1276 202.363 57.6328 202.363 53.612C202.363 50.9661 202.952 48.4349 204.15 46.0495C205.342 43.6536 206.9 41.8776 208.827 40.7161C210.759 39.5547 213.025 38.9766 215.634 38.9766C219.134 38.9766 221.926 40.1484 224.014 42.4922C226.098 44.8255 227.145 48.3307 227.145 52.987L227.113 54.5495H207.9C208.202 57.0443 208.775 58.9714 209.639 60.3307C210.493 61.6797 211.639 62.7318 213.077 63.487C214.509 64.2422 216.322 64.6172 218.53 64.6172C219.65 64.6172 220.77 64.5286 221.879 64.3411C222.999 64.1641 224.697 63.6745 227.004 62.8932V66.9505ZM208.145 50.7005H221.691C221.691 47.8776 221.087 45.862 219.895 44.6484C218.702 43.4297 217.171 42.8255 215.296 42.8255C213.165 42.8255 211.499 43.487 210.306 44.7891C209.113 46.0911 208.389 48.0651 208.145 50.7005Z" fill="white"></path>
</svg>