<svg xmlns="http://www.w3.org/2000/svg" xmlns:xlink="http://www.w3.org/1999/xlink" width="470" zoomAndPan="magnify" viewBox="0 0 352.5 116.999995" height="156" preserveAspectRatio="xMidYMid meet"><defs><clipPath id="489eedc528"><path d="M 0 0.0820312 L 352 0.0820312 L 352 116.917969 L 0 116.917969 Z M 0 0.0820312 "></path></clipPath></defs><g id="57759ea9ee"><g clip-rule="nonzero" clip-path="url(#489eedc528)"><path style=" stroke:none;fill-rule:nonzero;fill:#ffffff;fill-opacity:1;" d="M 0 0.0820312 L 352 0.0820312 L 352 116.917969 L 0 116.917969 Z M 0 0.0820312 "></path><path style=" stroke:none;fill-rule:nonzero;fill:#ffffff;fill-opacity:1;" d="M 0 0.0820312 L 352 0.0820312 L 352 116.917969 L 0 116.917969 Z M 0 0.0820312 "></path></g><path style=" stroke:none;fill-rule:evenodd;fill:#004b78;fill-opacity:1;" d="M 31.941406 19.300781 L 173.953125 19.300781 L 173.953125 58.707031 L 31.941406 58.707031 Z M 31.941406 19.300781 "></path><path style=" stroke:none;fill-rule:evenodd;fill:#eceded;fill-opacity:1;" d="M 173.953125 19.300781 L 319.183594 19.300781 L 319.183594 58.707031 L 173.953125 58.707031 Z M 173.953125 19.300781 "></path><path style=" stroke:none;fill-rule:evenodd;fill:#004b78;fill-opacity:1;" d="M 179.800781 25.429688 L 179.800781 52.644531 L 183.917969 52.644531 L 183.917969 42.6875 L 187.519531 42.6875 C 194.257812 42.6875 198.046875 39.589844 198.046875 34.28125 C 198.046875 28.855469 193.976562 25.429688 187.238281 25.429688 Z M 183.917969 28.445312 L 186.304688 28.445312 C 190.792969 28.445312 193.695312 30.570312 193.695312 33.996094 C 193.695312 37.710938 191.027344 39.792969 186.023438 39.792969 L 183.917969 39.792969 Z M 203.84375 24.855469 L 203.84375 52.644531 L 207.777344 52.644531 L 207.777344 36.976562 C 209.597656 35.710938 211.191406 35.097656 212.875 35.097656 C 216.289062 35.097656 216.945312 37.058594 216.945312 40.609375 L 216.945312 52.644531 L 220.828125 52.644531 L 220.828125 39.628906 C 220.828125 34.730469 218.347656 32.242188 213.996094 32.242188 C 211.707031 32.242188 210.023438 32.8125 208.195312 34.242188 L 207.777344 34.160156 L 207.777344 24.855469 Z M 238.324219 50.847656 L 238.324219 52.644531 L 242.203125 52.644531 L 242.203125 39.015625 C 242.203125 34.445312 239.445312 32.324219 233.597656 32.324219 C 231.257812 32.324219 229.058594 32.730469 226.722656 33.46875 L 226.722656 37.425781 L 228.589844 37.425781 C 230.089844 35.875 231.867188 35.097656 233.785156 35.097656 C 236.6875 35.097656 238.324219 36.199219 238.324219 38.039062 L 238.324219 39.710938 L 235.9375 40.078125 C 229.109375 41.21875 225.457031 42.855469 225.457031 47.097656 C 225.457031 50.566406 228.078125 53.144531 232.195312 53.144531 C 234.578125 53.144531 236.636719 52.363281 238.324219 50.847656 Z M 238.324219 41.996094 L 238.324219 48.484375 C 236.777344 49.664062 235.328125 50.238281 233.738281 50.238281 C 231.304688 50.238281 229.574219 48.769531 229.574219 46.890625 C 229.574219 44.238281 232.382812 43.015625 238.324219 41.996094 Z M 248.660156 32.8125 L 248.660156 52.644531 L 252.589844 52.644531 L 252.589844 41.628906 C 252.589844 37.835938 253.855469 36.8125 258.390625 36.8125 L 260.355469 36.8125 L 260.355469 32.8125 L 260.074219 32.8125 C 256.332031 32.8125 254.273438 33.671875 252.777344 36.199219 L 252.402344 35.957031 C 252.542969 35.179688 252.589844 34.40625 252.589844 33.589844 L 252.589844 32.8125 Z M 264.285156 32.8125 L 264.285156 52.644531 L 268.214844 52.644531 L 268.214844 36.976562 C 269.804688 35.710938 271.300781 35.097656 273.078125 35.097656 C 276.261719 35.097656 277.242188 36.894531 277.242188 40.609375 L 277.242188 52.644531 L 280.9375 52.644531 L 280.9375 36.976562 C 282.765625 35.710938 284.398438 35.097656 286.035156 35.097656 C 289.078125 35.097656 290.246094 36.851562 290.246094 40.609375 L 290.246094 52.644531 L 294.132812 52.644531 L 294.132812 39.792969 C 294.132812 34.773438 291.746094 32.242188 287.300781 32.242188 C 284.304688 32.242188 282.4375 33.179688 280.425781 35.464844 C 279.253906 33.34375 277.054688 32.242188 274.109375 32.242188 C 271.957031 32.242188 270.320312 32.855469 268.683594 34.242188 L 268.214844 34.160156 L 268.214844 32.8125 Z M 311.71875 50.847656 L 311.71875 52.644531 L 315.601562 52.644531 L 315.601562 39.015625 C 315.601562 34.445312 312.84375 32.324219 306.992188 32.324219 C 304.65625 32.324219 302.457031 32.730469 300.117188 33.46875 L 300.117188 37.425781 L 301.988281 37.425781 C 303.488281 35.875 305.265625 35.097656 307.183594 35.097656 C 310.082031 35.097656 311.71875 36.199219 311.71875 38.039062 L 311.71875 39.710938 L 309.332031 40.078125 C 302.503906 41.21875 298.855469 42.855469 298.855469 47.097656 C 298.855469 50.566406 301.476562 53.144531 305.589844 53.144531 C 307.976562 53.144531 310.035156 52.363281 311.71875 50.847656 Z M 311.71875 41.996094 L 311.71875 48.484375 C 310.175781 49.664062 308.726562 50.238281 307.136719 50.238281 C 304.703125 50.238281 302.972656 48.769531 302.972656 46.890625 C 302.972656 44.238281 305.777344 43.015625 311.71875 41.996094 Z M 311.71875 41.996094 "></path><path style=" stroke:none;fill-rule:evenodd;fill:#004b78;fill-opacity:1;" d="M 125.671875 82.296875 C 125.101562 82.953125 124.332031 83.839844 123.351562 84.957031 C 122.375 86.070312 121.515625 87.035156 120.785156 87.84375 C 120.050781 88.652344 119.285156 89.414062 118.492188 90.128906 C 117.703125 90.847656 116.992188 91.378906 116.367188 91.726562 C 116.035156 91.929688 115.652344 92.035156 115.222656 92.035156 C 114.617188 92.035156 114.042969 91.617188 113.503906 90.789062 C 112.96875 89.960938 112.679688 89.230469 112.640625 88.59375 C 112.679688 87.917969 113.097656 86.996094 113.902344 85.828125 C 114.742188 84.683594 115.613281 83.550781 116.511719 82.4375 C 117.414062 81.320312 118.195312 80.378906 118.863281 79.613281 C 119.527344 78.84375 120.476562 77.742188 121.707031 76.3125 C 122.019531 75.921875 122.179688 75.5625 122.179688 75.234375 C 122.179688 74.828125 121.835938 74.621094 121.152344 74.621094 C 120.464844 74.621094 119.546875 74.84375 118.390625 75.296875 C 117.824219 75.523438 117.210938 75.773438 116.558594 76.050781 C 115.902344 76.324219 115.335938 76.570312 114.855469 76.785156 C 114.375 77 113.871094 77.261719 113.34375 77.570312 C 113.1875 77.671875 112.925781 77.824219 112.566406 78.03125 C 112.203125 78.234375 111.847656 78.414062 111.496094 78.566406 C 111.144531 78.722656 110.839844 78.808594 110.585938 78.828125 C 110.152344 78.828125 109.910156 78.492188 109.851562 77.816406 C 109.890625 77.652344 109.910156 77.445312 109.910156 77.203125 C 110.183594 75.890625 110.460938 75.015625 110.746094 74.574219 C 111.03125 74.132812 111.570312 73.578125 112.375 72.902344 C 113.921875 71.488281 114.851562 70.785156 115.164062 70.785156 C 115.203125 70.785156 115.222656 70.84375 115.222656 70.964844 C 115.222656 71.234375 114.957031 71.734375 114.429688 72.46875 C 116.113281 71.835938 117.480469 71.34375 118.539062 70.996094 C 119.59375 70.648438 120.710938 70.476562 121.882812 70.476562 C 122.609375 70.476562 123.125 70.515625 123.441406 70.597656 C 123.714844 70.660156 123.984375 70.894531 124.246094 71.304688 C 124.511719 71.714844 124.726562 72.195312 124.894531 72.75 C 125.058594 73.300781 125.144531 73.863281 125.144531 74.4375 C 125.144531 74.949219 125.054688 75.410156 124.878906 75.820312 C 124.429688 76.636719 123.957031 77.410156 123.46875 78.136719 C 122.980469 78.863281 122.402344 79.671875 121.738281 80.5625 C 121.070312 81.453125 120.398438 82.351562 119.710938 83.25 C 119.496094 83.515625 119.074219 84.035156 118.449219 84.800781 C 117.824219 85.570312 117.34375 86.203125 117.011719 86.703125 C 116.679688 87.207031 116.601562 87.5 116.777344 87.582031 C 116.992188 87.703125 117.570312 87.355469 118.507812 86.535156 C 119.449219 85.71875 120.378906 84.828125 121.296875 83.867188 C 122.628906 82.515625 123.867188 81.203125 125.011719 79.933594 C 126.15625 78.664062 127.578125 77.039062 129.28125 75.050781 C 129.574219 74.683594 129.90625 74.269531 130.277344 73.808594 C 130.648438 73.347656 131.027344 72.945312 131.410156 72.609375 C 131.789062 72.269531 132.167969 72.101562 132.539062 72.101562 C 132.910156 72.101562 133.242188 72.320312 133.535156 72.75 C 133.828125 73.175781 133.976562 73.609375 133.976562 74.035156 C 133.976562 74.285156 133.917969 74.519531 133.800781 74.742188 C 133.683594 74.96875 133.546875 75.195312 133.390625 75.417969 C 133.234375 75.644531 132.929688 76.085938 132.480469 76.738281 C 131.578125 78.070312 130.660156 79.519531 129.722656 81.085938 C 128.78125 82.652344 128.007812 84.058594 127.402344 85.308594 C 126.792969 86.558594 126.480469 87.457031 126.464844 88.011719 C 126.523438 88.214844 126.601562 88.347656 126.699219 88.410156 C 127.011719 88.554688 127.851562 88.019531 129.222656 86.8125 C 130.59375 85.605469 131.792969 84.304688 132.832031 82.914062 C 133.359375 82.175781 133.898438 81.386719 134.445312 80.546875 C 134.992188 79.710938 135.472656 78.90625 135.882812 78.136719 C 136.292969 77.371094 136.539062 76.800781 136.617188 76.433594 C 136.519531 76.390625 136.441406 76.226562 136.382812 75.941406 C 136.382812 75.550781 136.515625 75.070312 136.78125 74.5 C 137.042969 73.925781 137.359375 73.425781 137.734375 72.992188 C 138.105469 72.5625 138.417969 72.347656 138.671875 72.347656 C 139.101562 72.347656 139.320312 72.890625 139.320312 73.976562 L 139.320312 74.742188 C 139.140625 76.769531 138.28125 79.148438 136.734375 81.882812 C 135.191406 84.617188 133.390625 87.019531 131.335938 89.085938 C 130.316406 90.109375 129.492188 90.847656 128.855469 91.296875 C 128.21875 91.746094 127.578125 91.972656 126.933594 91.972656 C 126.128906 91.972656 125.433594 91.640625 124.847656 90.972656 C 124.261719 90.308594 123.9375 89.554688 123.878906 88.71875 C 123.898438 88.183594 124.003906 87.582031 124.1875 86.90625 C 124.375 86.230469 124.605469 85.5 124.878906 84.710938 C 125.152344 83.921875 125.417969 83.117188 125.671875 82.296875 Z M 139.464844 85.617188 C 140.738281 85.125 141.777344 84.488281 142.589844 83.710938 C 143.402344 82.933594 143.808594 82.339844 143.808594 81.929688 C 143.808594 81.847656 143.804688 81.792969 143.792969 81.761719 C 143.785156 81.730469 143.769531 81.714844 143.75 81.714844 C 143.632812 81.589844 143.289062 81.675781 142.722656 81.960938 C 142.15625 82.246094 141.566406 82.699219 140.960938 83.3125 C 140.355469 83.925781 139.855469 84.695312 139.464844 85.617188 Z M 139.40625 87.058594 C 139.347656 87.304688 139.289062 87.5625 139.230469 87.828125 C 139.230469 88.296875 139.40625 88.664062 139.757812 88.933594 C 140.109375 89.199219 140.558594 89.351562 141.109375 89.394531 C 141.265625 89.351562 141.441406 89.332031 141.636719 89.332031 C 142.144531 89.230469 142.640625 89.054688 143.117188 88.808594 C 143.597656 88.5625 144.261719 88.113281 145.113281 87.457031 C 145.964844 86.800781 146.65625 86.242188 147.183594 85.769531 L 147.476562 86.996094 C 145.972656 88.695312 144.550781 89.960938 143.222656 90.789062 C 141.890625 91.617188 140.707031 92.035156 139.671875 92.035156 C 138.671875 92.035156 137.878906 91.660156 137.292969 90.914062 C 136.707031 90.164062 136.390625 89.21875 136.351562 88.074219 C 136.292969 86.925781 136.621094 85.71875 137.335938 84.449219 C 138.050781 83.179688 139.019531 82.121094 140.242188 81.269531 C 141.464844 80.421875 142.75 79.964844 144.101562 79.90625 C 145.628906 79.84375 146.390625 80.363281 146.390625 81.46875 C 146.390625 82.105469 146.164062 82.71875 145.714844 83.3125 C 145.070312 84.214844 144.164062 84.957031 143 85.539062 C 141.835938 86.121094 140.636719 86.628906 139.40625 87.058594 Z M 162.621094 83.804688 C 162.210938 84.089844 161.761719 84.414062 161.269531 84.769531 C 160.78125 85.128906 160.410156 85.414062 160.15625 85.632812 C 159.902344 85.847656 159.652344 86.128906 159.40625 86.476562 C 159.164062 86.824219 159.011719 87.210938 158.953125 87.644531 C 159.089844 88.5625 159.84375 89.105469 161.210938 89.269531 C 162.953125 89.207031 165.125 88.011719 167.726562 85.675781 L 168.078125 86.9375 C 165.027344 90.253906 162.40625 91.910156 160.214844 91.910156 C 159.058594 91.910156 158.210938 91.433594 157.660156 90.484375 C 157.113281 89.53125 156.839844 88.421875 156.839844 87.152344 C 156.839844 86.003906 157.164062 85.007812 157.808594 84.15625 C 158.453125 83.308594 159.433594 82.472656 160.742188 81.652344 C 162.875 80.300781 164.441406 79.660156 165.4375 79.71875 C 166.359375 79.71875 166.820312 80.160156 166.820312 81.039062 C 166.820312 81.738281 166.417969 82.59375 165.613281 83.621094 C 164.832031 84.582031 164.148438 85.105469 163.5625 85.183594 C 163.089844 85.144531 162.777344 84.683594 162.621094 83.804688 Z M 176.621094 83.097656 L 176.621094 83.035156 C 174.898438 83.648438 173.535156 84.171875 172.527344 84.601562 C 171.519531 85.03125 170.613281 85.605469 169.8125 86.320312 C 169.007812 87.039062 168.65625 87.835938 168.753906 88.71875 C 168.753906 89.042969 168.933594 89.25 169.285156 89.332031 C 169.910156 89.3125 170.9375 88.644531 172.363281 87.335938 C 173.792969 86.023438 175.210938 84.613281 176.621094 83.097656 Z M 178.382812 82.238281 C 178.910156 82.503906 179.171875 82.882812 179.171875 83.375 C 179.171875 83.867188 178.929688 84.410156 178.441406 85 C 177.285156 86.414062 176.699219 87.457031 176.679688 88.132812 C 176.71875 88.542969 176.964844 88.78125 177.414062 88.839844 C 178.214844 88.941406 179.664062 88.101562 181.757812 86.320312 L 181.992188 87.582031 C 180.875 88.75 179.605469 89.867188 178.175781 90.941406 C 176.746094 92.019531 175.710938 92.472656 175.066406 92.3125 C 174.359375 92.148438 173.980469 91.636719 173.921875 90.773438 C 173.980469 89.832031 174.359375 88.644531 175.066406 87.210938 L 175.007812 87.152344 C 174.28125 87.765625 173.535156 88.398438 172.761719 89.054688 C 171.988281 89.710938 171.308594 90.25 170.722656 90.667969 C 170.132812 91.089844 169.675781 91.359375 169.34375 91.480469 C 168.910156 91.625 168.355469 91.265625 167.667969 90.40625 C 166.984375 89.546875 166.640625 88.6875 166.640625 87.828125 C 166.640625 87.457031 166.660156 87.210938 166.699219 87.089844 C 166.976562 85.960938 167.734375 84.871094 168.976562 83.820312 C 170.21875 82.765625 171.640625 81.890625 173.246094 81.195312 C 174.851562 80.496094 176.160156 80.109375 177.179688 80.027344 L 177.472656 80.027344 C 177.960938 80.027344 178.394531 80.164062 178.777344 80.441406 C 179.160156 80.71875 179.351562 81.082031 179.351562 81.53125 C 179.351562 81.777344 179.027344 82.011719 178.382812 82.238281 Z M 186.921875 84.234375 L 186.863281 84.171875 C 186.6875 84.214844 186.148438 84.335938 185.25 84.542969 C 184.351562 84.746094 183.867188 84.859375 183.8125 84.878906 C 183.535156 85.328125 183.238281 85.738281 182.914062 86.109375 C 182.59375 86.476562 182.171875 86.894531 181.652344 87.367188 C 181.132812 87.835938 180.671875 88.265625 180.261719 88.65625 L 180.140625 87.335938 C 180.75 86.824219 181.402344 86.066406 182.109375 85.0625 C 181.5625 85.0625 181.289062 84.785156 181.289062 84.234375 C 181.289062 83.578125 181.585938 82.828125 182.179688 81.976562 C 182.777344 81.128906 183.558594 80.414062 184.515625 79.84375 C 184.75 79.757812 184.9375 79.71875 185.074219 79.71875 C 185.386719 79.71875 185.542969 79.90625 185.542969 80.273438 C 185.542969 80.496094 185.464844 80.773438 185.308594 81.101562 C 188.027344 80.753906 189.40625 80.578125 189.445312 80.578125 C 189.855469 80.578125 190.148438 80.789062 190.324219 81.207031 C 190.5 81.628906 190.589844 82.09375 190.589844 82.605469 C 190.589844 82.894531 190.570312 83.078125 190.53125 83.15625 C 190.472656 83.300781 190.113281 83.6875 189.445312 84.3125 C 188.78125 84.933594 188.242188 85.542969 187.832031 86.136719 C 187.421875 86.917969 187.195312 87.476562 187.15625 87.828125 C 187.253906 88.296875 187.558594 88.59375 188.066406 88.71875 C 188.808594 88.675781 190.179688 87.734375 192.175781 85.890625 L 192.351562 87.058594 C 191.101562 88.511719 189.910156 89.652344 188.785156 90.484375 C 187.660156 91.3125 186.824219 91.746094 186.277344 91.789062 C 185.828125 91.832031 185.390625 91.65625 184.96875 91.265625 C 184.550781 90.875 184.300781 90.324219 184.222656 89.609375 C 184.144531 88.769531 184.324219 87.964844 184.765625 87.199219 C 185.203125 86.429688 185.925781 85.441406 186.921875 84.234375 Z M 195.550781 85.617188 C 196.824219 85.125 197.863281 84.488281 198.675781 83.710938 C 199.488281 82.933594 199.894531 82.339844 199.894531 81.929688 C 199.894531 81.847656 199.890625 81.792969 199.878906 81.761719 C 199.871094 81.730469 199.855469 81.714844 199.835938 81.714844 C 199.71875 81.589844 199.378906 81.675781 198.808594 81.960938 C 198.242188 82.246094 197.65625 82.699219 197.046875 83.3125 C 196.441406 83.925781 195.941406 84.695312 195.550781 85.617188 Z M 195.492188 87.058594 C 195.433594 87.304688 195.375 87.5625 195.316406 87.828125 C 195.316406 88.296875 195.492188 88.664062 195.84375 88.933594 C 196.195312 89.199219 196.648438 89.351562 197.195312 89.394531 C 197.351562 89.351562 197.527344 89.332031 197.722656 89.332031 C 198.230469 89.230469 198.726562 89.054688 199.207031 88.808594 C 199.683594 88.5625 200.351562 88.113281 201.203125 87.457031 C 202.050781 86.800781 202.742188 86.242188 203.269531 85.769531 L 203.5625 86.996094 C 202.058594 88.695312 200.640625 89.960938 199.308594 90.789062 C 197.976562 91.617188 196.792969 92.035156 195.757812 92.035156 C 194.757812 92.035156 193.96875 91.660156 193.378906 90.914062 C 192.792969 90.164062 192.480469 89.21875 192.441406 88.074219 C 192.382812 86.925781 192.710938 85.71875 193.421875 84.449219 C 194.136719 83.179688 195.105469 82.121094 196.328125 81.269531 C 197.550781 80.421875 198.839844 79.964844 200.1875 79.90625 C 201.714844 79.84375 202.476562 80.363281 202.476562 81.46875 C 202.476562 82.105469 202.253906 82.71875 201.804688 83.3125 C 201.15625 84.214844 200.253906 84.957031 199.089844 85.539062 C 197.925781 86.121094 196.726562 86.628906 195.492188 87.058594 Z M 212.574219 89.394531 C 211.96875 88.617188 211.664062 87.96875 211.664062 87.457031 C 211.664062 86.621094 212.445312 85.839844 214.011719 85.125 C 214.621094 84.859375 215.125 84.398438 215.523438 83.742188 C 215.925781 83.085938 216.71875 81.679688 217.902344 79.519531 C 219.085938 77.359375 220.136719 75.625 221.054688 74.316406 C 221.9375 73.167969 222.632812 72.59375 223.140625 72.59375 C 223.511719 72.59375 223.699219 73.035156 223.699219 73.914062 C 223.679688 74.898438 223.414062 75.875 222.90625 76.847656 C 222.398438 77.820312 221.355469 79.429688 219.78125 81.671875 C 218.203125 83.910156 217.164062 85.441406 216.652344 86.261719 C 216.890625 86.382812 217.105469 86.566406 217.300781 86.8125 C 217.496094 87.058594 217.675781 87.382812 217.84375 87.78125 C 218.007812 88.179688 218.132812 88.472656 218.210938 88.65625 L 222.171875 86.078125 L 222.496094 87.152344 C 221.320312 88.441406 220.058594 89.445312 218.707031 90.160156 C 218.921875 91.183594 218.832031 92.246094 218.429688 93.339844 C 218.027344 94.4375 217.460938 95.402344 216.726562 96.242188 C 215.992188 97.082031 215.214844 97.761719 214.394531 98.285156 C 213.574219 98.804688 212.839844 99.097656 212.191406 99.160156 C 211.664062 99.21875 211.253906 98.820312 210.960938 97.960938 C 210.667969 97.101562 210.519531 96.261719 210.519531 95.441406 C 210.519531 94.542969 210.671875 93.707031 210.972656 92.941406 C 211.277344 92.171875 211.8125 90.992188 212.574219 89.394531 Z M 213.660156 96.640625 C 214.539062 96.085938 215.277344 95.257812 215.875 94.152344 C 216.472656 93.046875 216.691406 91.902344 216.535156 90.710938 C 216.242188 90.710938 216 90.734375 215.800781 90.773438 C 215.214844 90.710938 214.777344 90.589844 214.484375 90.40625 C 213.5625 92.167969 213.082031 93.488281 213.042969 94.367188 C 213.101562 95.023438 213.308594 95.78125 213.660156 96.640625 Z M 228.421875 83.3125 C 227.015625 84.089844 225.945312 84.820312 225.210938 85.507812 C 224.476562 86.195312 224.078125 87.109375 224.019531 88.257812 C 223.960938 89.035156 224.363281 89.457031 225.222656 89.515625 C 226.066406 89.433594 226.867188 89.011719 227.628906 88.257812 C 227.375 87.785156 227.21875 87.324219 227.160156 86.875 C 227.199219 85.933594 227.621094 84.746094 228.421875 83.3125 Z M 230.886719 81.898438 C 231.613281 81.980469 231.976562 82.554688 231.976562 83.621094 C 231.976562 84.703125 231.59375 85.921875 230.828125 87.273438 C 230.988281 87.273438 231.105469 87.292969 231.183594 87.335938 C 231.808594 87.292969 232.679688 86.722656 233.792969 85.617188 L 234.144531 86.9375 C 233.480469 87.878906 232.765625 88.523438 232.003906 88.871094 C 231.242188 89.21875 230.371094 89.414062 229.390625 89.457031 C 227.964844 90.929688 226.535156 91.667969 225.105469 91.667969 C 224.070312 91.667969 223.261719 91.214844 222.683594 90.316406 C 222.109375 89.414062 221.820312 88.378906 221.820312 87.210938 C 221.820312 85.882812 222.226562 84.667969 223.039062 83.574219 C 223.851562 82.480469 224.871094 81.601562 226.105469 80.949219 C 227.335938 80.292969 228.589844 79.964844 229.859375 79.964844 C 230.957031 79.964844 231.503906 80.28125 231.503906 80.917969 C 231.503906 81.304688 231.300781 81.632812 230.886719 81.898438 Z M 238.960938 84.234375 L 238.902344 84.171875 C 238.722656 84.214844 238.1875 84.335938 237.285156 84.542969 C 236.386719 84.746094 235.90625 84.859375 235.847656 84.878906 C 235.574219 85.328125 235.277344 85.738281 234.953125 86.109375 C 234.628906 86.476562 234.210938 86.894531 233.691406 87.367188 C 233.171875 87.835938 232.707031 88.265625 232.296875 88.65625 L 232.179688 87.335938 C 232.785156 86.824219 233.441406 86.066406 234.144531 85.0625 C 233.597656 85.0625 233.324219 84.785156 233.324219 84.234375 C 233.324219 83.578125 233.625 82.828125 234.21875 81.976562 C 234.816406 81.128906 235.59375 80.414062 236.550781 79.84375 C 236.789062 79.757812 236.972656 79.71875 237.109375 79.71875 C 237.421875 79.71875 237.582031 79.90625 237.582031 80.273438 C 237.582031 80.496094 237.5 80.773438 237.34375 81.101562 C 240.066406 80.753906 241.445312 80.578125 241.484375 80.578125 C 241.894531 80.578125 242.1875 80.789062 242.363281 81.207031 C 242.539062 81.628906 242.628906 82.09375 242.628906 82.605469 C 242.628906 82.894531 242.609375 83.078125 242.570312 83.15625 C 242.511719 83.300781 242.148438 83.6875 241.484375 84.3125 C 240.816406 84.933594 240.28125 85.542969 239.871094 86.136719 C 239.457031 86.917969 239.234375 87.476562 239.195312 87.828125 C 239.292969 88.296875 239.59375 88.59375 240.105469 88.71875 C 240.847656 88.675781 242.21875 87.734375 244.214844 85.890625 L 244.390625 87.058594 C 243.136719 88.511719 241.949219 89.652344 240.824219 90.484375 C 239.699219 91.3125 238.863281 91.746094 238.3125 91.789062 C 237.863281 91.832031 237.429688 91.65625 237.007812 91.265625 C 236.585938 90.875 236.339844 90.324219 236.257812 89.609375 C 236.179688 88.769531 236.363281 87.964844 236.804688 87.199219 C 237.242188 86.429688 237.960938 85.441406 238.960938 84.234375 Z M 257.246094 82.972656 C 257.949219 82.382812 258.777344 81.410156 259.726562 80.054688 C 260.675781 78.707031 261.363281 77.414062 261.792969 76.1875 C 261.03125 76.738281 260.171875 77.734375 259.210938 79.167969 C 258.253906 80.597656 257.597656 81.871094 257.246094 82.972656 Z M 256.628906 85.675781 C 256.589844 85.820312 256.558594 86.019531 256.539062 86.273438 C 256.523438 86.53125 256.492188 86.800781 256.453125 87.089844 C 256.511719 88.421875 257.050781 89.085938 258.066406 89.085938 C 259.378906 89.085938 261.039062 88.0625 263.054688 86.015625 L 263.4375 86.996094 C 261.890625 88.675781 260.675781 89.894531 259.785156 90.652344 C 258.894531 91.410156 257.839844 91.789062 256.628906 91.789062 C 255.847656 91.789062 255.222656 91.523438 254.765625 90.992188 C 254.304688 90.457031 254.046875 89.824219 253.988281 89.085938 C 253.871094 87.695312 253.96875 86.3125 254.28125 84.9375 C 254.59375 83.570312 255.082031 82.257812 255.746094 81.007812 C 256.414062 79.757812 257.210938 78.578125 258.140625 77.460938 C 259.070312 76.347656 260.210938 75.144531 261.558594 73.851562 C 262.554688 72.933594 263.222656 72.46875 263.554688 72.46875 C 263.867188 72.46875 264.023438 72.871094 264.023438 73.667969 C 264.023438 75.265625 263.589844 76.828125 262.71875 78.351562 C 261.847656 79.878906 260.71875 81.417969 259.328125 82.972656 C 258.15625 84.261719 257.253906 85.164062 256.628906 85.675781 Z M 264.992188 86.996094 C 264.992188 87.140625 264.972656 87.292969 264.933594 87.457031 C 264.953125 87.949219 265.089844 88.3125 265.34375 88.550781 C 265.601562 88.785156 266 88.902344 266.546875 88.902344 C 267.117188 88.902344 267.640625 88.75 268.117188 88.441406 C 268.597656 88.132812 269.503906 87.449219 270.832031 86.382812 L 271.070312 87.519531 C 269.914062 89.097656 268.730469 90.277344 267.515625 91.066406 C 266.304688 91.855469 265.316406 92.15625 264.554688 91.972656 C 263.203125 91.582031 262.527344 90.375 262.527344 88.347656 C 262.527344 86.15625 263.527344 84.121094 265.519531 82.238281 C 266.324219 81.398438 267.125 80.976562 267.929688 80.976562 C 268.242188 80.976562 268.519531 81.050781 268.765625 81.195312 C 269.007812 81.335938 269.132812 81.574219 269.132812 81.898438 C 269.132812 82.578125 268.597656 83.488281 267.53125 84.632812 C 266.464844 85.78125 265.621094 86.566406 264.992188 86.996094 Z M 268.542969 78.058594 C 269.09375 77.140625 269.828125 76.679688 270.746094 76.679688 C 271.429688 76.679688 271.773438 77.015625 271.773438 77.691406 C 271.773438 78.367188 271.550781 78.945312 271.113281 79.429688 C 270.671875 79.910156 270.128906 80.210938 269.484375 80.335938 C 269.171875 80.335938 268.898438 80.207031 268.660156 79.949219 C 268.425781 79.691406 268.300781 79.382812 268.28125 79.011719 C 268.378906 78.5 268.464844 78.183594 268.542969 78.058594 Z M 270.480469 89.394531 C 269.875 88.617188 269.570312 87.96875 269.570312 87.457031 C 269.570312 86.621094 270.355469 85.839844 271.921875 85.125 C 272.527344 84.859375 273.03125 84.398438 273.433594 83.742188 C 273.832031 83.085938 274.625 81.679688 275.808594 79.519531 C 276.992188 77.359375 278.042969 75.625 278.964844 74.316406 C 279.84375 73.167969 280.539062 72.59375 281.046875 72.59375 C 281.417969 72.59375 281.605469 73.035156 281.605469 73.914062 C 281.585938 74.898438 281.320312 75.875 280.8125 76.847656 C 280.304688 77.820312 279.261719 79.429688 277.6875 81.671875 C 276.113281 83.910156 275.070312 85.441406 274.5625 86.261719 C 274.796875 86.382812 275.011719 86.566406 275.207031 86.8125 C 275.402344 87.058594 275.585938 87.382812 275.75 87.78125 C 275.914062 88.179688 276.039062 88.472656 276.117188 88.65625 L 280.078125 86.078125 L 280.402344 87.152344 C 279.226562 88.441406 277.964844 89.445312 276.617188 90.160156 C 276.832031 91.183594 276.738281 92.246094 276.335938 93.339844 C 275.9375 94.4375 275.367188 95.402344 274.636719 96.242188 C 273.902344 97.082031 273.125 97.761719 272.300781 98.285156 C 271.480469 98.804688 270.746094 99.097656 270.097656 99.160156 C 269.570312 99.21875 269.160156 98.820312 268.867188 97.960938 C 268.574219 97.101562 268.429688 96.261719 268.429688 95.441406 C 268.429688 94.542969 268.578125 93.707031 268.882812 92.941406 C 269.183594 92.171875 269.71875 90.992188 270.480469 89.394531 Z M 271.566406 96.640625 C 272.449219 96.085938 273.1875 95.257812 273.785156 94.152344 C 274.378906 93.046875 274.601562 91.902344 274.445312 90.710938 C 274.148438 90.710938 273.90625 90.734375 273.710938 90.773438 C 273.125 90.710938 272.683594 90.589844 272.390625 90.40625 C 271.46875 92.167969 270.992188 93.488281 270.953125 94.367188 C 271.007812 95.023438 271.214844 95.78125 271.566406 96.640625 Z M 283.042969 85.617188 C 284.316406 85.125 285.359375 84.488281 286.167969 83.710938 C 286.980469 82.933594 287.386719 82.339844 287.386719 81.929688 C 287.386719 81.847656 287.382812 81.792969 287.371094 81.761719 C 287.363281 81.730469 287.347656 81.714844 287.328125 81.714844 C 287.210938 81.589844 286.867188 81.675781 286.300781 81.960938 C 285.734375 82.246094 285.144531 82.699219 284.539062 83.3125 C 283.933594 83.925781 283.433594 84.695312 283.042969 85.617188 Z M 282.984375 87.058594 C 282.925781 87.304688 282.867188 87.5625 282.808594 87.828125 C 282.808594 88.296875 282.984375 88.664062 283.335938 88.933594 C 283.6875 89.199219 284.140625 89.351562 284.6875 89.394531 C 284.84375 89.351562 285.019531 89.332031 285.214844 89.332031 C 285.722656 89.230469 286.21875 89.054688 286.699219 88.808594 C 287.175781 88.5625 287.84375 88.113281 288.691406 87.457031 C 289.542969 86.800781 290.234375 86.242188 290.761719 85.769531 L 291.054688 86.996094 C 289.550781 88.695312 288.132812 89.960938 286.800781 90.789062 C 285.46875 91.617188 284.285156 92.035156 283.25 92.035156 C 282.25 92.035156 281.457031 91.660156 280.871094 90.914062 C 280.285156 90.164062 279.972656 89.21875 279.933594 88.074219 C 279.875 86.925781 280.199219 85.71875 280.914062 84.449219 C 281.628906 83.179688 282.597656 82.121094 283.820312 81.269531 C 285.042969 80.421875 286.332031 79.964844 287.679688 79.90625 C 289.207031 79.84375 289.96875 80.363281 289.96875 81.46875 C 289.96875 82.105469 289.746094 82.71875 289.296875 83.3125 C 288.648438 84.214844 287.742188 84.957031 286.582031 85.539062 C 285.414062 86.121094 284.21875 86.628906 282.984375 87.058594 Z M 295.722656 87.210938 C 296.25 87.335938 296.515625 87.621094 296.515625 88.074219 C 296.515625 88.910156 296.269531 89.71875 295.78125 90.5 C 295.289062 91.277344 294.695312 91.667969 293.992188 91.667969 C 292.875 91.667969 292.269531 91.246094 292.171875 90.40625 C 292.269531 89.566406 292.558594 88.804688 293.039062 88.117188 C 293.515625 87.433594 294.117188 87.089844 294.84375 87.089844 C 295.039062 87.089844 295.332031 87.128906 295.722656 87.210938 Z M 304.554688 87.210938 C 305.085938 87.335938 305.347656 87.621094 305.347656 88.074219 C 305.347656 88.910156 305.105469 89.71875 304.613281 90.5 C 304.125 91.277344 303.527344 91.667969 302.824219 91.667969 C 301.710938 91.667969 301.101562 91.246094 301.003906 90.40625 C 301.101562 89.566406 301.390625 88.804688 301.871094 88.117188 C 302.351562 87.433594 302.953125 87.089844 303.675781 87.089844 C 303.871094 87.089844 304.164062 87.128906 304.554688 87.210938 Z M 313.390625 87.210938 C 313.917969 87.335938 314.183594 87.621094 314.183594 88.074219 C 314.183594 88.910156 313.9375 89.71875 313.449219 90.5 C 312.960938 91.277344 312.363281 91.667969 311.660156 91.667969 C 310.542969 91.667969 309.9375 91.246094 309.839844 90.40625 C 309.9375 89.566406 310.226562 88.804688 310.707031 88.117188 C 311.183594 87.433594 311.785156 87.089844 312.511719 87.089844 C 312.707031 87.089844 313 87.128906 313.390625 87.210938 Z M 313.390625 87.210938 "></path><path style=" stroke:none;fill-rule:evenodd;fill:#ffffff;fill-opacity:1;" d="M 39.484375 50.894531 L 39.484375 22.035156 L 49.644531 22.035156 C 53.570312 22.035156 56.539062 22.574219 58.5625 23.644531 C 60.585938 24.71875 62.171875 26.28125 63.324219 28.34375 C 64.472656 30.402344 65.050781 32.882812 65.050781 35.78125 C 65.050781 38.527344 64.523438 41.042969 63.472656 43.328125 C 62.421875 45.617188 60.820312 47.449219 58.667969 48.824219 C 56.519531 50.203125 53.535156 50.894531 49.707031 50.894531 Z M 43.820312 47.832031 L 49.375 47.832031 C 52.265625 47.832031 54.433594 47.402344 55.871094 46.535156 C 57.308594 45.671875 58.4375 44.304688 59.246094 42.429688 C 60.058594 40.558594 60.46875 38.476562 60.46875 36.171875 C 60.46875 34.140625 60.113281 32.296875 59.417969 30.628906 C 58.710938 28.957031 57.578125 27.613281 56.003906 26.609375 C 54.4375 25.601562 51.5625 25.097656 47.394531 25.097656 L 43.820312 25.097656 Z M 72.59375 58.597656 L 76.226562 50.902344 L 67.554688 29.714844 L 71.945312 29.714844 L 78.363281 45.65625 L 85.238281 29.714844 L 89.082031 29.714844 L 76.824219 58.597656 Z M 108.816406 50.25 C 106.207031 51 103.957031 51.382812 102.0625 51.382812 C 100.082031 51.382812 98.269531 50.867188 96.609375 49.851562 C 94.960938 48.832031 93.71875 47.488281 92.882812 45.824219 C 92.042969 44.160156 91.617188 42.28125 91.617188 40.1875 C 91.617188 37.070312 92.527344 34.46875 94.339844 32.378906 C 96.160156 30.296875 98.960938 29.25 102.753906 29.25 C 104.5 29.25 106.441406 29.476562 108.570312 29.9375 L 108.570312 33.152344 C 106.300781 32.511719 104.445312 32.191406 103.019531 32.191406 C 100.757812 32.191406 99.058594 32.996094 97.914062 34.601562 C 96.773438 36.207031 96.203125 38.109375 96.203125 40.304688 C 96.203125 42.683594 96.84375 44.605469 98.132812 46.078125 C 99.417969 47.546875 101.089844 48.28125 103.140625 48.28125 C 104.980469 48.28125 106.871094 47.832031 108.816406 46.933594 Z M 115.0625 50.894531 L 115.0625 29.714844 L 119.132812 29.714844 L 119.132812 50.894531 Z M 115.0625 25.875 L 115.0625 22.035156 L 119.132812 22.035156 L 119.132812 25.875 Z M 127.289062 50.894531 L 127.289062 29.714844 L 131.359375 29.714844 L 131.359375 33.695312 C 132.394531 32.277344 133.59375 31.1875 134.960938 30.410156 C 136.335938 29.636719 137.753906 29.25 139.234375 29.25 C 141.132812 29.25 142.675781 29.816406 143.859375 30.953125 C 145.046875 32.09375 145.636719 33.667969 145.636719 35.6875 L 145.636719 50.894531 L 141.570312 50.894531 L 141.570312 36.929688 C 141.570312 35.464844 141.429688 34.496094 141.152344 34.027344 C 140.878906 33.554688 140.496094 33.195312 139.996094 32.945312 C 139.503906 32.691406 138.972656 32.566406 138.410156 32.566406 C 137.402344 32.566406 136.316406 32.859375 135.152344 33.441406 C 133.988281 34.027344 132.71875 35.273438 131.359375 37.183594 L 131.359375 50.894531 Z M 170.253906 50.210938 C 167.488281 50.988281 165.121094 51.382812 163.152344 51.382812 C 159.613281 51.382812 156.835938 50.277344 154.8125 48.058594 C 152.789062 45.84375 151.773438 43.222656 151.773438 40.207031 C 151.773438 38.222656 152.214844 36.324219 153.113281 34.535156 C 154.007812 32.738281 155.175781 31.40625 156.621094 30.535156 C 158.070312 29.664062 159.769531 29.230469 161.726562 29.230469 C 164.351562 29.230469 166.445312 30.109375 168.011719 31.867188 C 169.574219 33.617188 170.359375 36.246094 170.359375 39.738281 L 170.335938 40.910156 L 155.925781 40.910156 C 156.152344 42.78125 156.582031 44.226562 157.230469 45.246094 C 157.871094 46.257812 158.730469 47.046875 159.808594 47.613281 C 160.882812 48.179688 162.242188 48.460938 163.898438 48.460938 C 164.738281 48.460938 165.578125 48.394531 166.410156 48.253906 C 167.25 48.121094 168.523438 47.753906 170.253906 47.167969 Z M 156.109375 38.023438 L 166.269531 38.023438 C 166.269531 35.90625 165.816406 34.394531 164.921875 33.484375 C 164.027344 32.570312 162.878906 32.117188 161.472656 32.117188 C 159.875 32.117188 158.625 32.613281 157.730469 33.589844 C 156.835938 34.566406 156.292969 36.046875 156.109375 38.023438 Z M 156.109375 38.023438 "></path></g></svg>